<?xml version="1.0" encoding="UTF-8" standalone="no"?>
<!-- Created with Inkscape (http://www.inkscape.org/) -->

<svg
   xmlns:dc="http://purl.org/dc/elements/1.1/"
   xmlns:cc="http://creativecommons.org/ns#"
   xmlns:rdf="http://www.w3.org/1999/02/22-rdf-syntax-ns#"
   xmlns:svg="http://www.w3.org/2000/svg"
   xmlns="http://www.w3.org/2000/svg"
   xmlns:sodipodi="http://sodipodi.sourceforge.net/DTD/sodipodi-0.dtd"
   xmlns:inkscape="http://www.inkscape.org/namespaces/inkscape"
   width="952"
   height="158"
   id="svg8030"
   version="1.1"
   inkscape:version="0.48.4 r"
   sodipodi:docname="logo.svg">
  <defs
     id="defs8032" />
  <sodipodi:namedview
     id="base"
     pagecolor="#ffffff"
     bordercolor="#666666"
     borderopacity="1.0"
     inkscape:pageopacity="0.0"
     inkscape:pageshadow="2"
     inkscape:zoom="1.1596639"
     inkscape:cx="504.3026"
     inkscape:cy="147.98551"
     inkscape:document-units="px"
     inkscape:current-layer="layer1"
     showgrid="false"
     inkscape:window-width="1267"
     inkscape:window-height="787"
     inkscape:window-x="90"
     inkscape:window-y="0"
     inkscape:window-maximized="0" />
  <metadata
     id="metadata8035">
    <rdf:RDF>
      <cc:Work
         rdf:about="">
        <dc:format>image/svg+xml</dc:format>
        <dc:type
           rdf:resource="http://purl.org/dc/dcmitype/StillImage" />
        <dc:title />
      </cc:Work>
    </rdf:RDF>
  </metadata>
  <g
     inkscape:label="Layer 1"
     inkscape:groupmode="layer"
     id="layer1"
     transform="translate(0,-894.36218)">
    <g
       id="g3202"
       transform="matrix(1.88644,0,0,1.88644,-4.6519327,-127.97183)">
      <g
         id="g3003-0-5"
         transform="matrix(1.6411449,0,0,-1.6411449,16.64677,594.03493)">
        <path
           d="m 0,0 c -0.911,0 -2.272,0.035 -4.084,0.105 l 0,-5.616 c 1.721,0.091 3.588,0.42 5.601,0.991 1.761,0.5 2.632,1.041 2.612,1.622 C 4.1,-2.127 3.534,-1.441 2.433,-0.841 1.571,-0.36 0.76,-0.081 0,0 m -1.757,10.617 c -1.291,0 -2.067,-0.011 -2.327,-0.031 L -4.069,7.403 -4.084,4.25 c 0.91,-0.11 1.596,-0.146 2.057,-0.105 3.063,0.24 4.595,1.366 4.595,3.378 0,0.711 -0.451,1.396 -1.352,2.058 -0.931,0.69 -1.922,1.036 -2.973,1.036 M 3.003,-8.319 C 0.67,-9.19 -2.278,-9.625 -5.842,-9.625 c -0.6,0 -1.138,0.25 -1.614,0.75 -0.475,0.5 -0.713,1.037 -0.713,1.607 l 0,15.917 c -0.03,0.682 -0.055,1.362 -0.075,2.042 -0.03,0.771 -0.005,1.422 0.075,1.953 0.14,0.941 1.016,1.512 2.628,1.712 0.761,0.22 2.022,0.33 3.784,0.33 1.892,0 3.704,-0.611 5.436,-1.832 C 5.711,11.433 6.728,9.656 6.728,7.523 6.728,6.372 6.517,5.401 6.097,4.61 5.766,3.97 5.19,3.284 4.37,2.553 5.34,2.083 6.202,1.372 6.952,0.42 7.803,-0.641 8.229,-1.697 8.229,-2.748 8.229,-4.08 7.503,-5.341 6.051,-6.532 5.08,-7.323 4.064,-7.918 3.003,-8.319"
           style="fill:#fff200;fill-opacity:1;fill-rule:nonzero;stroke:none"
           id="path3005-2-3"
           inkscape:connector-curvature="0" />
      </g>
      <g
         id="g3007-4-2"
         transform="matrix(1.6411449,0,0,-1.6411449,16.64677,594.03493)">
        <path
           d="m 0,0 c -0.911,0 -2.272,0.035 -4.084,0.105 l 0,-5.616 c 1.721,0.091 3.588,0.42 5.601,0.991 1.761,0.5 2.632,1.041 2.612,1.622 C 4.1,-2.127 3.534,-1.441 2.433,-0.841 1.571,-0.36 0.76,-0.081 0,0 z m -1.757,10.617 c -1.291,0 -2.067,-0.011 -2.327,-0.031 L -4.069,7.403 -4.084,4.25 c 0.91,-0.11 1.596,-0.146 2.057,-0.105 3.063,0.24 4.595,1.366 4.595,3.378 0,0.711 -0.451,1.396 -1.352,2.058 -0.931,0.69 -1.922,1.036 -2.973,1.036 z M 3.003,-8.319 C 0.67,-9.19 -2.278,-9.625 -5.842,-9.625 c -0.6,0 -1.138,0.25 -1.614,0.75 -0.475,0.5 -0.713,1.037 -0.713,1.607 l 0,15.917 c -0.03,0.682 -0.055,1.362 -0.075,2.042 -0.03,0.771 -0.005,1.422 0.075,1.953 0.14,0.941 1.016,1.512 2.628,1.712 0.761,0.22 2.022,0.33 3.784,0.33 1.892,0 3.704,-0.611 5.436,-1.832 C 5.711,11.433 6.728,9.656 6.728,7.523 6.728,6.372 6.517,5.401 6.097,4.61 5.766,3.97 5.19,3.284 4.37,2.553 5.34,2.083 6.202,1.372 6.952,0.42 7.803,-0.641 8.229,-1.697 8.229,-2.748 8.229,-4.08 7.503,-5.341 6.051,-6.532 5.08,-7.323 4.064,-7.918 3.003,-8.319 z"
           style="fill:none;stroke:#231f20;stroke-width:0.9139961;stroke-linecap:butt;stroke-linejoin:miter;stroke-miterlimit:4;stroke-opacity:1;stroke-dasharray:none"
           id="path3009-8-8"
           inkscape:connector-curvature="0" />
      </g>
      <g
         id="g3011-6-2"
         transform="matrix(1.6411449,0,0,-1.6411449,56.464568,594.40436)">
        <path
           d="m 0,0 c 0,-0.671 0.005,-1.682 0.015,-3.033 0.01,-1.352 0.015,-2.363 0.015,-3.034 0,-0.21 0.017,-0.523 0.053,-0.938 0.034,-0.416 0.052,-0.728 0.052,-0.938 0,-0.561 -0.202,-1.024 -0.608,-1.39 -0.405,-0.365 -0.904,-0.548 -1.494,-0.548 -0.831,0 -1.437,0.375 -1.817,1.127 -1.282,-0.471 -2.608,-0.706 -3.98,-0.706 -1.421,0 -2.617,0.298 -3.589,0.896 -1.091,0.687 -1.741,1.688 -1.951,3.001 -0.391,2.49 -0.586,4.716 -0.586,6.677 0,1.294 0.15,2.773 0.45,4.436 0.2,1.125 0.876,1.688 2.027,1.688 0.581,0 1.077,-0.181 1.487,-0.544 0.41,-0.363 0.616,-0.823 0.616,-1.38 0,-0.437 -0.073,-1.123 -0.218,-2.057 -0.145,-0.935 -0.218,-1.646 -0.218,-2.132 0,-1.402 0.048,-2.627 0.143,-3.676 0.095,-1.049 0.238,-1.916 0.428,-2.602 0.25,-0.109 0.493,-0.194 0.728,-0.253 0.235,-0.06 0.463,-0.09 0.683,-0.09 1.112,0 2.333,0.16 3.664,0.48 0,0.771 -0.004,1.647 -0.015,2.628 -0.02,1.172 -0.03,2.013 -0.03,2.523 0,2.053 0.096,3.824 0.286,5.316 0.15,1.191 0.831,1.787 2.042,1.787 0.59,0 1.096,-0.186 1.517,-0.556 C 0.12,6.312 0.315,5.847 0.285,5.286 0.095,1.471 0,-0.291 0,0"
           style="fill:#fff200;fill-opacity:1;fill-rule:nonzero;stroke:none"
           id="path3013-5-5"
           inkscape:connector-curvature="0" />
      </g>
      <g
         id="g3015-0-3"
         transform="matrix(1.6411449,0,0,-1.6411449,56.464568,594.40436)">
        <path
           d="m 0,0 c 0,-0.671 0.005,-1.682 0.015,-3.033 0.01,-1.352 0.015,-2.363 0.015,-3.034 0,-0.21 0.017,-0.523 0.053,-0.938 0.034,-0.416 0.052,-0.728 0.052,-0.938 0,-0.561 -0.202,-1.024 -0.608,-1.39 -0.405,-0.365 -0.904,-0.548 -1.494,-0.548 -0.831,0 -1.437,0.375 -1.817,1.127 -1.282,-0.471 -2.608,-0.706 -3.98,-0.706 -1.421,0 -2.617,0.298 -3.589,0.896 -1.091,0.687 -1.741,1.688 -1.951,3.001 -0.391,2.49 -0.586,4.716 -0.586,6.677 0,1.294 0.15,2.773 0.45,4.436 0.2,1.125 0.876,1.688 2.027,1.688 0.581,0 1.077,-0.181 1.487,-0.544 0.41,-0.363 0.616,-0.823 0.616,-1.38 0,-0.437 -0.073,-1.123 -0.218,-2.057 -0.145,-0.935 -0.218,-1.646 -0.218,-2.132 0,-1.402 0.048,-2.627 0.143,-3.676 0.095,-1.049 0.238,-1.916 0.428,-2.602 0.25,-0.109 0.493,-0.194 0.728,-0.253 0.235,-0.06 0.463,-0.09 0.683,-0.09 1.112,0 2.333,0.16 3.664,0.48 0,0.771 -0.004,1.647 -0.015,2.628 -0.02,1.172 -0.03,2.013 -0.03,2.523 0,2.053 0.096,3.824 0.286,5.316 0.15,1.191 0.831,1.787 2.042,1.787 0.59,0 1.096,-0.186 1.517,-0.556 C 0.12,6.312 0.315,5.847 0.285,5.286 0.095,1.471 0,-0.291 0,0 z"
           style="fill:none;stroke:#231f20;stroke-width:0.9139961;stroke-linecap:butt;stroke-linejoin:miter;stroke-miterlimit:4;stroke-opacity:1;stroke-dasharray:none"
           id="path3017-9-6"
           inkscape:connector-curvature="0" />
      </g>
      <g
         id="g3019-0-1"
         transform="matrix(1.6411449,0,0,-1.6411449,79.228232,590.6092)">
        <path
           d="m 0,0 c -0.991,0 -1.587,0.415 -1.787,1.247 -0.401,0.069 -0.811,0.105 -1.231,0.105 -2.413,0 -3.619,-0.331 -3.619,-0.992 0,-0.39 0.725,-0.916 2.177,-1.576 1.982,-0.911 3.324,-1.622 4.024,-2.133 1.452,-1.05 2.178,-2.237 2.178,-3.558 0,-1.722 -0.801,-3.029 -2.403,-3.92 -1.291,-0.711 -2.878,-1.066 -4.76,-1.066 -1.331,0 -2.548,0.205 -3.649,0.616 -1.502,0.56 -2.252,1.386 -2.252,2.478 0,1 0.595,1.501 1.787,1.501 0.46,0 1.126,-0.145 1.997,-0.435 0.871,-0.29 1.541,-0.436 2.012,-0.436 2.032,0 3.053,0.41 3.063,1.231 0,0.511 -0.705,1.077 -2.117,1.697 -2.062,0.911 -3.384,1.567 -3.964,1.968 -1.412,0.99 -2.118,2.197 -2.118,3.618 0,2.012 1.067,3.369 3.199,4.07 1.251,0.41 3.153,0.615 5.706,0.615 1.001,0 1.742,-0.13 2.222,-0.39 C 1.126,4.289 1.457,3.644 1.457,2.703 1.457,0.901 0.971,0 0,0"
           style="fill:#fff200;fill-opacity:1;fill-rule:nonzero;stroke:none"
           id="path3021-0-8"
           inkscape:connector-curvature="0" />
      </g>
      <g
         id="g3023-6-6"
         transform="matrix(1.6411449,0,0,-1.6411449,79.228232,590.6092)">
        <path
           d="m 0,0 c -0.991,0 -1.587,0.415 -1.787,1.247 -0.401,0.069 -0.811,0.105 -1.231,0.105 -2.413,0 -3.619,-0.331 -3.619,-0.992 0,-0.39 0.725,-0.916 2.177,-1.576 1.982,-0.911 3.324,-1.622 4.024,-2.133 1.452,-1.05 2.178,-2.237 2.178,-3.558 0,-1.722 -0.801,-3.029 -2.403,-3.92 -1.291,-0.711 -2.878,-1.066 -4.76,-1.066 -1.331,0 -2.548,0.205 -3.649,0.616 -1.502,0.56 -2.252,1.386 -2.252,2.478 0,1 0.595,1.501 1.787,1.501 0.46,0 1.126,-0.145 1.997,-0.435 0.871,-0.29 1.541,-0.436 2.012,-0.436 2.032,0 3.053,0.41 3.063,1.231 0,0.511 -0.705,1.077 -2.117,1.697 -2.062,0.911 -3.384,1.567 -3.964,1.968 -1.412,0.99 -2.118,2.197 -2.118,3.618 0,2.012 1.067,3.369 3.199,4.07 1.251,0.41 3.153,0.615 5.706,0.615 1.001,0 1.742,-0.13 2.222,-0.39 C 1.126,4.289 1.457,3.644 1.457,2.703 1.457,0.901 0.971,0 0,0 z"
           style="fill:none;stroke:#231f20;stroke-width:0.9139961;stroke-linecap:butt;stroke-linejoin:miter;stroke-miterlimit:4;stroke-opacity:1;stroke-dasharray:none"
           id="path3025-1-2"
           inkscape:connector-curvature="0" />
      </g>
      <g
         id="g3027-3-1"
         transform="matrix(1.6411449,0,0,-1.6411449,110.69209,587.82385)">
        <path
           d="m 0,0 c -1.091,-2.273 -2.817,-5.842 -5.181,-10.707 -1.281,-2.613 -2.257,-4.78 -2.927,-6.502 -0.211,-0.621 -0.541,-1.542 -0.992,-2.764 -0.36,-0.94 -1.001,-1.411 -1.921,-1.411 -0.571,0 -1.072,0.186 -1.502,0.556 -0.431,0.37 -0.646,0.836 -0.646,1.396 0,0.932 1.061,3.689 3.183,8.274 -1.101,2.173 -2.848,5.371 -5.24,9.595 -0.24,0.381 -0.486,0.767 -0.736,1.157 -0.27,0.46 -0.405,0.881 -0.405,1.261 0,0.541 0.215,1.016 0.645,1.427 0.43,0.41 0.926,0.616 1.487,0.616 0.66,0 1.176,-0.246 1.547,-0.736 1.421,-1.892 3.078,-4.74 4.97,-8.544 1.071,2.372 1.722,3.804 1.951,4.294 0.711,1.492 1.408,2.803 2.088,3.935 0.431,0.72 1.022,1.081 1.772,1.081 0.56,0 1.061,-0.191 1.502,-0.571 C 0.035,1.977 0.256,1.511 0.256,0.961 0.256,0.67 0.171,0.35 0,0"
           style="fill:#fff200;fill-opacity:1;fill-rule:nonzero;stroke:none"
           id="path3029-8-4"
           inkscape:connector-curvature="0" />
      </g>
      <g
         id="g3031-9-6"
         transform="matrix(1.6411449,0,0,-1.6411449,110.69209,587.82385)">
        <path
           d="m 0,0 c -1.091,-2.273 -2.817,-5.842 -5.181,-10.707 -1.281,-2.613 -2.257,-4.78 -2.927,-6.502 -0.211,-0.621 -0.541,-1.542 -0.992,-2.764 -0.36,-0.94 -1.001,-1.411 -1.921,-1.411 -0.571,0 -1.072,0.186 -1.502,0.556 -0.431,0.37 -0.646,0.836 -0.646,1.396 0,0.932 1.061,3.689 3.183,8.274 -1.101,2.173 -2.848,5.371 -5.24,9.595 -0.24,0.381 -0.486,0.767 -0.736,1.157 -0.27,0.46 -0.405,0.881 -0.405,1.261 0,0.541 0.215,1.016 0.645,1.427 0.43,0.41 0.926,0.616 1.487,0.616 0.66,0 1.176,-0.246 1.547,-0.736 1.421,-1.892 3.078,-4.74 4.97,-8.544 1.071,2.372 1.722,3.804 1.951,4.294 0.711,1.492 1.408,2.803 2.088,3.935 0.431,0.72 1.022,1.081 1.772,1.081 0.56,0 1.061,-0.191 1.502,-0.571 C 0.035,1.977 0.256,1.511 0.256,0.961 0.256,0.67 0.171,0.35 0,0 z"
           style="fill:none;stroke:#231f20;stroke-width:0.9139961;stroke-linecap:butt;stroke-linejoin:miter;stroke-miterlimit:4;stroke-opacity:1;stroke-dasharray:none"
           id="path3033-3-2"
           inkscape:connector-curvature="0" />
      </g>
      <g
         id="g3035-4-9"
         transform="matrix(1.6411449,0,0,-1.6411449,189.60327,589.00416)">
        <path
           d="m 0,0 c -0.93,0 -1.727,-0.311 -2.387,-0.931 -0.661,-0.62 -1.191,-1.551 -1.592,-2.793 1.131,0.49 2.258,0.976 3.379,1.456 1.352,0.611 2.428,1.177 3.229,1.697 C 1.957,-0.19 1.082,0 0,0 m 0.406,-12.749 c -2.392,0 -4.349,0.571 -5.871,1.712 -1.681,1.261 -2.523,3.038 -2.523,5.331 0,2.533 0.666,4.675 1.998,6.427 1.48,1.942 3.478,2.913 5.99,2.913 1.742,0 3.189,-0.28 4.34,-0.841 C 5.852,2.052 6.607,0.901 6.607,-0.66 6.607,-1.762 5.992,-2.738 4.761,-3.589 4.2,-3.979 3.074,-4.55 1.383,-5.3 l -5.061,-2.238 c 0.481,-0.521 1.061,-0.911 1.741,-1.171 0.681,-0.26 1.462,-0.391 2.343,-0.391 1.342,0 2.478,0.275 3.408,0.826 0.832,0.49 1.498,0.736 1.999,0.736 1.041,0 1.561,-0.505 1.561,-1.516 0,-1.142 -0.837,-2.073 -2.508,-2.794 -1.401,-0.6 -2.888,-0.901 -4.46,-0.901"
           style="fill:#fff200;fill-opacity:1;fill-rule:nonzero;stroke:none"
           id="path3037-4-1"
           inkscape:connector-curvature="0" />
      </g>
      <g
         id="g3039-6-5"
         transform="matrix(1.6411449,0,0,-1.6411449,189.60327,589.00416)">
        <path
           d="m 0,0 c -0.93,0 -1.727,-0.311 -2.387,-0.931 -0.661,-0.62 -1.191,-1.551 -1.592,-2.793 1.131,0.49 2.258,0.976 3.379,1.456 1.352,0.611 2.428,1.177 3.229,1.697 C 1.957,-0.19 1.082,0 0,0 z m 0.406,-12.749 c -2.392,0 -4.349,0.571 -5.871,1.712 -1.681,1.261 -2.523,3.038 -2.523,5.331 0,2.533 0.666,4.675 1.998,6.427 1.48,1.942 3.478,2.913 5.99,2.913 1.742,0 3.189,-0.28 4.34,-0.841 C 5.852,2.052 6.607,0.901 6.607,-0.66 6.607,-1.762 5.992,-2.738 4.761,-3.589 4.2,-3.979 3.074,-4.55 1.383,-5.3 l -5.061,-2.238 c 0.481,-0.521 1.061,-0.911 1.741,-1.171 0.681,-0.26 1.462,-0.391 2.343,-0.391 1.342,0 2.478,0.275 3.408,0.826 0.832,0.49 1.498,0.736 1.999,0.736 1.041,0 1.561,-0.505 1.561,-1.516 0,-1.142 -0.837,-2.073 -2.508,-2.794 -1.401,-0.6 -2.888,-0.901 -4.46,-0.901 z"
           style="fill:none;stroke:#231f20;stroke-width:0.9139961;stroke-linecap:butt;stroke-linejoin:miter;stroke-miterlimit:4;stroke-opacity:1;stroke-dasharray:none"
           id="path3041-0-0"
           inkscape:connector-curvature="0" />
      </g>
      <g
         id="g3043-6-3"
         transform="matrix(1.6411449,0,0,-1.6411449,217.57002,589.00416)">
        <path
           d="m 0,0 c -0.932,0 -1.727,-0.311 -2.389,-0.931 -0.66,-0.62 -1.19,-1.551 -1.591,-2.793 1.131,0.49 2.257,0.976 3.378,1.456 1.352,0.611 2.428,1.177 3.229,1.697 C 1.957,-0.19 1.081,0 0,0 m 0.405,-12.749 c -2.393,0 -4.35,0.571 -5.872,1.712 -1.681,1.261 -2.522,3.038 -2.522,5.331 0,2.533 0.666,4.675 1.997,6.427 C -4.51,2.663 -2.514,3.634 0,3.634 1.742,3.634 3.188,3.354 4.34,2.793 5.851,2.052 6.607,0.901 6.607,-0.66 6.607,-1.762 5.991,-2.738 4.76,-3.589 4.199,-3.979 3.072,-4.55 1.381,-5.3 L -3.68,-7.538 c 0.481,-0.521 1.062,-0.911 1.742,-1.171 0.681,-0.26 1.461,-0.391 2.343,-0.391 1.341,0 2.478,0.275 3.409,0.826 0.831,0.49 1.497,0.736 1.997,0.736 1.041,0 1.562,-0.505 1.562,-1.516 0,-1.142 -0.836,-2.073 -2.508,-2.794 -1.402,-0.6 -2.888,-0.901 -4.46,-0.901"
           style="fill:#fff200;fill-opacity:1;fill-rule:nonzero;stroke:none"
           id="path3045-6-6"
           inkscape:connector-curvature="0" />
      </g>
      <g
         id="g3047-1-4"
         transform="matrix(1.6411449,0,0,-1.6411449,217.57002,589.00416)">
        <path
           d="m 0,0 c -0.932,0 -1.727,-0.311 -2.389,-0.931 -0.66,-0.62 -1.19,-1.551 -1.591,-2.793 1.131,0.49 2.257,0.976 3.378,1.456 1.352,0.611 2.428,1.177 3.229,1.697 C 1.957,-0.19 1.081,0 0,0 z m 0.405,-12.749 c -2.393,0 -4.35,0.571 -5.872,1.712 -1.681,1.261 -2.522,3.038 -2.522,5.331 0,2.533 0.666,4.675 1.997,6.427 C -4.51,2.663 -2.514,3.634 0,3.634 1.742,3.634 3.188,3.354 4.34,2.793 5.851,2.052 6.607,0.901 6.607,-0.66 6.607,-1.762 5.991,-2.738 4.76,-3.589 4.199,-3.979 3.072,-4.55 1.381,-5.3 L -3.68,-7.538 c 0.481,-0.521 1.062,-0.911 1.742,-1.171 0.681,-0.26 1.461,-0.391 2.343,-0.391 1.341,0 2.478,0.275 3.409,0.826 0.831,0.49 1.497,0.736 1.997,0.736 1.041,0 1.562,-0.505 1.562,-1.516 0,-1.142 -0.836,-2.073 -2.508,-2.794 -1.402,-0.6 -2.888,-0.901 -4.46,-0.901 z"
           style="fill:none;stroke:#231f20;stroke-width:0.9139961;stroke-linecap:butt;stroke-linejoin:miter;stroke-miterlimit:4;stroke-opacity:1;stroke-dasharray:none"
           id="path3049-8-9"
           inkscape:connector-curvature="0" />
      </g>
      <g
         id="g3051-4-2"
         transform="matrix(1.6411449,0,0,-1.6411449,267.81728,577.98814)">
        <path
           d="m 0,0 c -0.23,0 -0.485,0.045 -0.766,0.136 -1.291,0.42 -2.868,0.63 -4.73,0.63 -0.61,0 -1.314,-0.04 -2.109,-0.12 -0.796,-0.081 -1.68,-0.201 -2.651,-0.36 0.02,-1.923 0.02,-3.575 0,-4.956 1.522,0.371 2.783,0.556 3.784,0.556 1.863,0 3.484,-0.086 4.866,-0.256 1.292,-0.16 1.936,-0.84 1.936,-2.042 0,-0.58 -0.205,-1.066 -0.615,-1.456 -0.41,-0.391 -0.911,-0.586 -1.502,-0.586 -0.52,0 -1.301,0.039 -2.342,0.12 -1.041,0.08 -1.822,0.12 -2.343,0.12 -0.731,0 -1.992,-0.23 -3.784,-0.69 l 0,-9.416 c 0,-0.58 -0.227,-1.066 -0.683,-1.456 -0.456,-0.391 -0.979,-0.586 -1.569,-0.586 -0.581,0 -1.052,0.193 -1.412,0.578 -0.36,0.386 -0.541,0.874 -0.541,1.464 l 0,17.209 c 0,0.39 0.008,0.981 0.023,1.772 0.015,0.791 0.023,1.381 0.023,1.772 0,0.59 0.197,1.081 0.593,1.471 0.395,0.39 0.893,0.586 1.494,0.586 0.381,0 0.716,-0.075 1.006,-0.225 1.162,0.2 2.227,0.348 3.199,0.443 0.971,0.095 1.847,0.143 2.627,0.143 1.142,0 2.578,-0.236 4.31,-0.706 C 0.986,3.554 2.072,2.868 2.072,2.087 2.072,1.517 1.87,1.026 1.465,0.616 1.059,0.205 0.57,0 0,0"
           style="fill:#fff200;fill-opacity:1;fill-rule:nonzero;stroke:none"
           id="path3053-9-9"
           inkscape:connector-curvature="0" />
      </g>
      <g
         id="g3055-6-3"
         transform="matrix(1.6411449,0,0,-1.6411449,267.81728,577.98814)">
        <path
           d="m 0,0 c -0.23,0 -0.485,0.045 -0.766,0.136 -1.291,0.42 -2.868,0.63 -4.73,0.63 -0.61,0 -1.314,-0.04 -2.109,-0.12 -0.796,-0.081 -1.68,-0.201 -2.651,-0.36 0.02,-1.923 0.02,-3.575 0,-4.956 1.522,0.371 2.783,0.556 3.784,0.556 1.863,0 3.484,-0.086 4.866,-0.256 1.292,-0.16 1.936,-0.84 1.936,-2.042 0,-0.58 -0.205,-1.066 -0.615,-1.456 -0.41,-0.391 -0.911,-0.586 -1.502,-0.586 -0.52,0 -1.301,0.039 -2.342,0.12 -1.041,0.08 -1.822,0.12 -2.343,0.12 -0.731,0 -1.992,-0.23 -3.784,-0.69 l 0,-9.416 c 0,-0.58 -0.227,-1.066 -0.683,-1.456 -0.456,-0.391 -0.979,-0.586 -1.569,-0.586 -0.581,0 -1.052,0.193 -1.412,0.578 -0.36,0.386 -0.541,0.874 -0.541,1.464 l 0,17.209 c 0,0.39 0.008,0.981 0.023,1.772 0.015,0.791 0.023,1.381 0.023,1.772 0,0.59 0.197,1.081 0.593,1.471 0.395,0.39 0.893,0.586 1.494,0.586 0.381,0 0.716,-0.075 1.006,-0.225 1.162,0.2 2.227,0.348 3.199,0.443 0.971,0.095 1.847,0.143 2.627,0.143 1.142,0 2.578,-0.236 4.31,-0.706 C 0.986,3.554 2.072,2.868 2.072,2.087 2.072,1.517 1.87,1.026 1.465,0.616 1.059,0.205 0.57,0 0,0 z"
           style="fill:none;stroke:#231f20;stroke-width:0.9139961;stroke-linecap:butt;stroke-linejoin:miter;stroke-miterlimit:4;stroke-opacity:1;stroke-dasharray:none"
           id="path3057-3-4"
           inkscape:connector-curvature="0" />
      </g>
      <g
         id="g3059-7-4"
         transform="matrix(1.6411449,0,0,-1.6411449,293.24551,594.54861)">
        <path
           d="m 0,0 c 0,-0.671 0.006,-1.682 0.016,-3.033 0.009,-1.352 0.015,-2.363 0.015,-3.034 0,-0.21 0.018,-0.523 0.053,-0.938 0.035,-0.416 0.053,-0.728 0.053,-0.938 0,-0.561 -0.203,-1.024 -0.609,-1.39 -0.405,-0.365 -0.903,-0.548 -1.494,-0.548 -0.831,0 -1.436,0.375 -1.817,1.127 -1.281,-0.471 -2.608,-0.706 -3.979,-0.706 -1.423,0 -2.619,0.298 -3.59,0.896 -1.09,0.687 -1.742,1.688 -1.952,3.001 -0.389,2.49 -0.585,4.716 -0.585,6.677 0,1.294 0.151,2.773 0.451,4.436 0.2,1.125 0.875,1.688 2.027,1.688 0.58,0 1.075,-0.181 1.485,-0.544 0.412,-0.363 0.617,-0.823 0.617,-1.38 0,-0.437 -0.073,-1.123 -0.218,-2.057 -0.145,-0.935 -0.217,-1.646 -0.217,-2.132 0,-1.402 0.047,-2.627 0.142,-3.676 0.095,-1.049 0.238,-1.916 0.428,-2.602 0.25,-0.109 0.493,-0.194 0.729,-0.253 0.234,-0.06 0.463,-0.09 0.683,-0.09 1.112,0 2.332,0.16 3.663,0.48 0,0.771 -0.005,1.647 -0.014,2.628 -0.021,1.172 -0.03,2.013 -0.03,2.523 0,2.053 0.094,3.824 0.285,5.316 0.149,1.191 0.831,1.787 2.042,1.787 0.591,0 1.095,-0.186 1.517,-0.556 C 0.121,6.312 0.316,5.847 0.287,5.286 0.096,1.471 0,-0.291 0,0"
           style="fill:#fff200;fill-opacity:1;fill-rule:nonzero;stroke:none"
           id="path3061-8-0"
           inkscape:connector-curvature="0" />
      </g>
      <g
         id="g3063-8-5"
         transform="matrix(1.6411449,0,0,-1.6411449,293.24551,594.54861)">
        <path
           d="m 0,0 c 0,-0.671 0.006,-1.682 0.016,-3.033 0.009,-1.352 0.015,-2.363 0.015,-3.034 0,-0.21 0.018,-0.523 0.053,-0.938 0.035,-0.416 0.053,-0.728 0.053,-0.938 0,-0.561 -0.203,-1.024 -0.609,-1.39 -0.405,-0.365 -0.903,-0.548 -1.494,-0.548 -0.831,0 -1.436,0.375 -1.817,1.127 -1.281,-0.471 -2.608,-0.706 -3.979,-0.706 -1.423,0 -2.619,0.298 -3.59,0.896 -1.09,0.687 -1.742,1.688 -1.952,3.001 -0.389,2.49 -0.585,4.716 -0.585,6.677 0,1.294 0.151,2.773 0.451,4.436 0.2,1.125 0.875,1.688 2.027,1.688 0.58,0 1.075,-0.181 1.485,-0.544 0.412,-0.363 0.617,-0.823 0.617,-1.38 0,-0.437 -0.073,-1.123 -0.218,-2.057 -0.145,-0.935 -0.217,-1.646 -0.217,-2.132 0,-1.402 0.047,-2.627 0.142,-3.676 0.095,-1.049 0.238,-1.916 0.428,-2.602 0.25,-0.109 0.493,-0.194 0.729,-0.253 0.234,-0.06 0.463,-0.09 0.683,-0.09 1.112,0 2.332,0.16 3.663,0.48 0,0.771 -0.005,1.647 -0.014,2.628 -0.021,1.172 -0.03,2.013 -0.03,2.523 0,2.053 0.094,3.824 0.285,5.316 0.149,1.191 0.831,1.787 2.042,1.787 0.591,0 1.095,-0.186 1.517,-0.556 C 0.121,6.312 0.316,5.847 0.287,5.286 0.096,1.471 0,-0.291 0,0 z"
           style="fill:none;stroke:#231f20;stroke-width:0.9139961;stroke-linecap:butt;stroke-linejoin:miter;stroke-miterlimit:4;stroke-opacity:1;stroke-dasharray:none"
           id="path3065-2-9"
           inkscape:connector-curvature="0" />
      </g>
      <g
         id="g3067-9-6"
         transform="matrix(1.6411449,0,0,-1.6411449,317.07245,610.54337)">
        <path
           d="m 0,0 c -1.231,0 -1.917,0.606 -2.058,1.817 -0.14,1.032 -0.279,2.067 -0.42,3.109 -0.15,1.101 -0.225,2.137 -0.225,3.108 0,0.26 0.017,0.706 0.053,1.337 0.034,0.63 0.051,1.076 0.051,1.336 0,0.07 0.01,0.248 0.031,0.533 0.02,0.285 0.03,0.518 0.03,0.698 0,0.832 -0.2,1.247 -0.602,1.247 -0.857,0 -1.699,-0.551 -2.523,-1.654 -0.824,-1.103 -1.47,-2.5 -1.936,-4.193 C -7.618,7 -7.659,6.549 -7.725,5.985 -7.78,5.523 -7.81,5.072 -7.81,4.631 c 0,-0.287 -0.032,-0.72 -0.096,-1.3 -0.066,-0.579 -0.098,-1.013 -0.098,-1.3 0,-0.585 -0.198,-1.069 -0.593,-1.454 C -8.993,0.193 -9.491,0 -10.091,0 c -0.601,0 -1.097,0.192 -1.486,0.574 -0.391,0.383 -0.586,0.864 -0.586,1.445 0,0.285 -0.03,0.716 -0.091,1.293 -0.059,0.575 -0.091,1.006 -0.091,1.292 0,0.978 0.071,2.339 0.211,4.083 0.141,1.743 0.211,3.104 0.211,4.083 0,0.305 -0.017,0.762 -0.053,1.368 -0.035,0.607 -0.052,1.058 -0.052,1.354 0,0.571 0.203,1.042 0.608,1.414 0.405,0.372 0.903,0.559 1.494,0.559 1.312,0 2.013,-0.787 2.102,-2.358 l 0.014,-0.166 c 1.462,1.473 3.004,2.208 4.626,2.208 1.892,0 3.199,-0.791 3.919,-2.373 0.481,-1.061 0.721,-2.648 0.721,-4.76 l 0,-1.066 C 1.446,8.49 1.441,8.164 1.441,7.974 1.441,7.193 1.548,6.187 1.765,4.956 1.979,3.725 2.087,2.723 2.087,1.953 2.087,1.392 1.887,0.927 1.486,0.556 1.085,0.186 0.59,0 0,0"
           style="fill:#fff200;fill-opacity:1;fill-rule:nonzero;stroke:none"
           id="path3069-1-3"
           inkscape:connector-curvature="0" />
      </g>
      <g
         id="g3071-3-4"
         transform="matrix(1.6411449,0,0,-1.6411449,317.07245,610.54337)">
        <path
           d="m 0,0 c -1.231,0 -1.917,0.606 -2.058,1.817 -0.14,1.032 -0.279,2.067 -0.42,3.109 -0.15,1.101 -0.225,2.137 -0.225,3.108 0,0.26 0.017,0.706 0.053,1.337 0.034,0.63 0.051,1.076 0.051,1.336 0,0.07 0.01,0.248 0.031,0.533 0.02,0.285 0.03,0.518 0.03,0.698 0,0.832 -0.2,1.247 -0.602,1.247 -0.857,0 -1.699,-0.551 -2.523,-1.654 -0.824,-1.103 -1.47,-2.5 -1.936,-4.193 C -7.618,7 -7.659,6.549 -7.725,5.985 -7.78,5.523 -7.81,5.072 -7.81,4.631 c 0,-0.287 -0.032,-0.72 -0.096,-1.3 -0.066,-0.579 -0.098,-1.013 -0.098,-1.3 0,-0.585 -0.198,-1.069 -0.593,-1.454 C -8.993,0.193 -9.491,0 -10.091,0 c -0.601,0 -1.097,0.192 -1.486,0.574 -0.391,0.383 -0.586,0.864 -0.586,1.445 0,0.285 -0.03,0.716 -0.091,1.293 -0.059,0.575 -0.091,1.006 -0.091,1.292 0,0.978 0.071,2.339 0.211,4.083 0.141,1.743 0.211,3.104 0.211,4.083 0,0.305 -0.017,0.762 -0.053,1.368 -0.035,0.607 -0.052,1.058 -0.052,1.354 0,0.571 0.203,1.042 0.608,1.414 0.405,0.372 0.903,0.559 1.494,0.559 1.312,0 2.013,-0.787 2.102,-2.358 l 0.014,-0.166 c 1.462,1.473 3.004,2.208 4.626,2.208 1.892,0 3.199,-0.791 3.919,-2.373 0.481,-1.061 0.721,-2.648 0.721,-4.76 l 0,-1.066 C 1.446,8.49 1.441,8.164 1.441,7.974 1.441,7.193 1.548,6.187 1.765,4.956 1.979,3.725 2.087,2.723 2.087,1.953 2.087,1.392 1.887,0.927 1.486,0.556 1.085,0.186 0.59,0 0,0 z"
           style="fill:none;stroke:#231f20;stroke-width:0.9139961;stroke-linecap:butt;stroke-linejoin:miter;stroke-miterlimit:4;stroke-opacity:1;stroke-dasharray:none"
           id="path3073-5-2"
           inkscape:connector-curvature="0" />
      </g>
      <g
         id="g3075-9-8"
         transform="matrix(1.6411449,0,0,-1.6411449,342.37398,591.78886)">
        <path
           d="m 0,0 c -0.33,0.631 -0.76,1.102 -1.291,1.412 -0.531,0.31 -1.161,0.465 -1.893,0.465 -1.48,0 -2.591,-0.428 -3.333,-1.283 -0.741,-0.857 -1.112,-2.14 -1.112,-3.852 0,-1.081 0.401,-2.008 1.203,-2.778 0.801,-0.772 1.731,-1.157 2.793,-1.157 0.77,0 1.356,0.09 1.756,0.271 0.272,0.12 0.731,0.44 1.382,0.961 0.17,0.14 0.335,0.295 0.495,0.465 -0.02,0.481 -0.02,2.312 0,5.496 m 0.301,4.73 c 0.13,3.414 0.285,5.772 0.465,7.073 0.171,1.181 0.822,1.772 1.953,1.772 0.59,0 1.066,-0.192 1.426,-0.576 C 4.506,12.615 4.686,12.144 4.686,11.588 4.686,10.122 4.573,7.939 4.348,5.037 4.122,2.136 4.01,-0.047 4.01,-1.514 c 0,-3.578 0.115,-5.974 0.345,-7.187 0.03,-0.162 0.045,-0.309 0.045,-0.44 0,-0.556 -0.201,-1.014 -0.6,-1.373 -0.402,-0.359 -0.866,-0.538 -1.398,-0.538 -0.74,0 -1.291,0.33 -1.65,0.991 -0.682,-0.41 -1.388,-0.678 -2.117,-0.803 -0.733,-0.125 -1.489,-0.188 -2.268,-0.188 -2.244,0 -4.105,0.716 -5.587,2.148 -1.511,1.461 -2.267,3.323 -2.267,5.585 0,2.693 0.76,4.868 2.282,6.525 1.521,1.657 3.51,2.485 5.962,2.485 0.751,0 1.421,-0.08 2.013,-0.24 0.589,-0.16 1.101,-0.4 1.531,-0.721"
           style="fill:#fff200;fill-opacity:1;fill-rule:nonzero;stroke:none"
           id="path3077-8-8"
           inkscape:connector-curvature="0" />
      </g>
      <g
         id="g3079-4-7"
         transform="matrix(1.6411449,0,0,-1.6411449,342.37398,591.78886)">
        <path
           d="m 0,0 c -0.33,0.631 -0.76,1.102 -1.291,1.412 -0.531,0.31 -1.161,0.465 -1.893,0.465 -1.48,0 -2.591,-0.428 -3.333,-1.283 -0.741,-0.857 -1.112,-2.14 -1.112,-3.852 0,-1.081 0.401,-2.008 1.203,-2.778 0.801,-0.772 1.731,-1.157 2.793,-1.157 0.77,0 1.356,0.09 1.756,0.271 0.272,0.12 0.731,0.44 1.382,0.961 0.17,0.14 0.335,0.295 0.495,0.465 -0.02,0.481 -0.02,2.312 0,5.496 z m 0.301,4.73 c 0.13,3.414 0.285,5.772 0.465,7.073 0.171,1.181 0.822,1.772 1.953,1.772 0.59,0 1.066,-0.192 1.426,-0.576 C 4.506,12.615 4.686,12.144 4.686,11.588 4.686,10.122 4.573,7.939 4.348,5.037 4.122,2.136 4.01,-0.047 4.01,-1.514 c 0,-3.578 0.115,-5.974 0.345,-7.187 0.03,-0.162 0.045,-0.309 0.045,-0.44 0,-0.556 -0.201,-1.014 -0.6,-1.373 -0.402,-0.359 -0.866,-0.538 -1.398,-0.538 -0.74,0 -1.291,0.33 -1.65,0.991 -0.682,-0.41 -1.388,-0.678 -2.117,-0.803 -0.733,-0.125 -1.489,-0.188 -2.268,-0.188 -2.244,0 -4.105,0.716 -5.587,2.148 -1.511,1.461 -2.267,3.323 -2.267,5.585 0,2.693 0.76,4.868 2.282,6.525 1.521,1.657 3.51,2.485 5.962,2.485 0.751,0 1.421,-0.08 2.013,-0.24 0.589,-0.16 1.101,-0.4 1.531,-0.721 z"
           style="fill:none;stroke:#231f20;stroke-width:0.9139961;stroke-linecap:butt;stroke-linejoin:miter;stroke-miterlimit:4;stroke-opacity:1;stroke-dasharray:none"
           id="path3081-0-5"
           inkscape:connector-curvature="0" />
      </g>
      <g
         id="g3083-7-8"
         transform="matrix(1.6411449,0,0,-1.6411449,374.8731,591.02441)">
        <path
           d="m 0,0 c -0.09,-1.532 -0.785,-2.297 -2.087,-2.297 -1.261,0 -1.892,0.65 -1.892,1.951 l -0.075,1.517 c -2.253,-0.36 -3.864,-1.517 -4.835,-3.468 l 0.014,-7.554 c 0,-0.57 -0.193,-1.044 -0.584,-1.419 -0.391,-0.376 -0.887,-0.563 -1.487,-0.563 -0.621,0 -1.102,0.2 -1.442,0.601 -0.321,0.36 -0.48,0.82 -0.48,1.381 l 0,9.836 c 0,0.31 0.009,0.773 0.03,1.389 0.02,0.615 0.029,1.078 0.029,1.389 0,0.56 0.168,1.029 0.503,1.404 0.336,0.375 0.814,0.563 1.435,0.563 1.111,0 1.771,-0.57 1.982,-1.712 C -7.117,4.339 -5.15,5 -2.987,5 -0.985,5 0.016,3.668 0.016,1.006 0.016,0.495 0.011,0.16 0,0"
           style="fill:#fff200;fill-opacity:1;fill-rule:nonzero;stroke:none"
           id="path3085-6-1"
           inkscape:connector-curvature="0" />
      </g>
      <g
         id="g3087-3-2"
         transform="matrix(1.6411449,0,0,-1.6411449,374.8731,591.02441)">
        <path
           d="m 0,0 c -0.09,-1.532 -0.785,-2.297 -2.087,-2.297 -1.261,0 -1.892,0.65 -1.892,1.951 l -0.075,1.517 c -2.253,-0.36 -3.864,-1.517 -4.835,-3.468 l 0.014,-7.554 c 0,-0.57 -0.193,-1.044 -0.584,-1.419 -0.391,-0.376 -0.887,-0.563 -1.487,-0.563 -0.621,0 -1.102,0.2 -1.442,0.601 -0.321,0.36 -0.48,0.82 -0.48,1.381 l 0,9.836 c 0,0.31 0.009,0.773 0.03,1.389 0.02,0.615 0.029,1.078 0.029,1.389 0,0.56 0.168,1.029 0.503,1.404 0.336,0.375 0.814,0.563 1.435,0.563 1.111,0 1.771,-0.57 1.982,-1.712 C -7.117,4.339 -5.15,5 -2.987,5 -0.985,5 0.016,3.668 0.016,1.006 0.016,0.495 0.011,0.16 0,0 z"
           style="fill:none;stroke:#231f20;stroke-width:0.9139961;stroke-linecap:butt;stroke-linejoin:miter;stroke-miterlimit:4;stroke-opacity:1;stroke-dasharray:none"
           id="path3089-6-5"
           inkscape:connector-curvature="0" />
      </g>
      <g
         id="g3091-1-7"
         transform="matrix(1.6411449,0,0,-1.6411449,393.37454,593.51403)">
        <path
           d="M 0,0 C 0,0.321 0.023,0.688 0.068,1.104 0.113,1.52 0.181,1.982 0.271,2.493 0.07,2.593 -0.107,2.666 -0.262,2.71 -0.418,2.756 -0.55,2.778 -0.66,2.778 c -1.361,0 -2.553,-0.532 -3.574,-1.599 -1.021,-1.066 -1.532,-2.3 -1.532,-3.701 0,-1.342 0.241,-2.351 0.721,-3.026 0.481,-0.676 1.201,-1.014 2.162,-1.014 0.621,0 1.209,0.103 1.766,0.308 0.554,0.205 1.078,0.508 1.568,0.909 C 0.15,-2.963 0,-1.181 0,0 m 3.725,-10.136 c -0.461,0 -1.192,0.446 -2.192,1.337 C 0.611,-9.24 -0.2,-9.572 -0.9,-9.798 c -0.702,-0.225 -1.297,-0.338 -1.788,-0.338 -2.412,0 -4.221,0.646 -5.427,1.937 -1.207,1.291 -1.811,3.224 -1.811,5.797 0,2.412 0.892,4.477 2.674,6.194 1.781,1.716 3.914,2.576 6.397,2.576 C 0.096,6.368 1.197,6.1 2.448,5.564 3.96,4.92 4.716,4.171 4.716,3.319 4.716,2.962 4.602,2.65 4.37,2.382 4.271,1.986 4.193,1.488 4.138,0.888 4.082,0.289 4.055,-0.413 4.055,-1.215 c 0,-1.893 0.135,-3.256 0.406,-4.089 0.029,-0.089 0.26,-0.605 0.69,-1.546 0.391,-0.853 0.585,-1.338 0.585,-1.457 0,-0.526 -0.203,-0.962 -0.607,-1.308 -0.406,-0.347 -0.873,-0.521 -1.404,-0.521"
           style="fill:#fff200;fill-opacity:1;fill-rule:nonzero;stroke:none"
           id="path3093-5-4"
           inkscape:connector-curvature="0" />
      </g>
      <g
         id="g3095-4-4"
         transform="matrix(1.6411449,0,0,-1.6411449,393.37454,593.51403)">
        <path
           d="M 0,0 C 0,0.321 0.023,0.688 0.068,1.104 0.113,1.52 0.181,1.982 0.271,2.493 0.07,2.593 -0.107,2.666 -0.262,2.71 -0.418,2.756 -0.55,2.778 -0.66,2.778 c -1.361,0 -2.553,-0.532 -3.574,-1.599 -1.021,-1.066 -1.532,-2.3 -1.532,-3.701 0,-1.342 0.241,-2.351 0.721,-3.026 0.481,-0.676 1.201,-1.014 2.162,-1.014 0.621,0 1.209,0.103 1.766,0.308 0.554,0.205 1.078,0.508 1.568,0.909 C 0.15,-2.963 0,-1.181 0,0 z m 3.725,-10.136 c -0.461,0 -1.192,0.446 -2.192,1.337 C 0.611,-9.24 -0.2,-9.572 -0.9,-9.798 c -0.702,-0.225 -1.297,-0.338 -1.788,-0.338 -2.412,0 -4.221,0.646 -5.427,1.937 -1.207,1.291 -1.811,3.224 -1.811,5.797 0,2.412 0.892,4.477 2.674,6.194 1.781,1.716 3.914,2.576 6.397,2.576 C 0.096,6.368 1.197,6.1 2.448,5.564 3.96,4.92 4.716,4.171 4.716,3.319 4.716,2.962 4.602,2.65 4.37,2.382 4.271,1.986 4.193,1.488 4.138,0.888 4.082,0.289 4.055,-0.413 4.055,-1.215 c 0,-1.893 0.135,-3.256 0.406,-4.089 0.029,-0.089 0.26,-0.605 0.69,-1.546 0.391,-0.853 0.585,-1.338 0.585,-1.457 0,-0.526 -0.203,-0.962 -0.607,-1.308 -0.406,-0.347 -0.873,-0.521 -1.404,-0.521 z"
           style="fill:none;stroke:#231f20;stroke-width:0.9139961;stroke-linecap:butt;stroke-linejoin:miter;stroke-miterlimit:4;stroke-opacity:1;stroke-dasharray:none"
           id="path3097-2-4"
           inkscape:connector-curvature="0" />
      </g>
      <g
         id="g3099-0-4"
         transform="matrix(1.6411449,0,0,-1.6411449,412.71561,597.23549)">
        <path
           d="m 0,0 c 0,-0.57 0.018,-1.486 0.053,-2.748 0.035,-1.261 0.052,-2.177 0.052,-2.748 0,-0.58 -0.195,-1.058 -0.585,-1.434 -0.391,-0.375 -0.885,-0.563 -1.487,-0.563 -0.6,0 -1.096,0.188 -1.486,0.563 -0.391,0.376 -0.586,0.854 -0.586,1.434 0,0.571 -0.018,1.487 -0.053,2.748 -0.035,1.262 -0.053,2.178 -0.053,2.748 0,0.891 0.051,2.007 0.151,3.349 0.099,1.341 0.15,2.458 0.15,3.349 0,0.58 0.196,1.058 0.586,1.434 0.39,0.375 0.885,0.563 1.487,0.563 0.599,0 1.095,-0.188 1.486,-0.563 C 0.105,7.756 0.301,7.278 0.301,6.698 0.301,5.807 0.25,4.69 0.15,3.349 0.051,2.007 0,0.891 0,0"
           style="fill:#fff200;fill-opacity:1;fill-rule:nonzero;stroke:none"
           id="path3101-9-4"
           inkscape:connector-curvature="0" />
      </g>
      <g
         id="g3103-7-2"
         transform="matrix(1.6411449,0,0,-1.6411449,412.71561,597.23549)">
        <path
           d="m 0,0 c 0,-0.57 0.018,-1.486 0.053,-2.748 0.035,-1.261 0.052,-2.177 0.052,-2.748 0,-0.58 -0.195,-1.058 -0.585,-1.434 -0.391,-0.375 -0.885,-0.563 -1.487,-0.563 -0.6,0 -1.096,0.188 -1.486,0.563 -0.391,0.376 -0.586,0.854 -0.586,1.434 0,0.571 -0.018,1.487 -0.053,2.748 -0.035,1.262 -0.053,2.178 -0.053,2.748 0,0.891 0.051,2.007 0.151,3.349 0.099,1.341 0.15,2.458 0.15,3.349 0,0.58 0.196,1.058 0.586,1.434 0.39,0.375 0.885,0.563 1.487,0.563 0.599,0 1.095,-0.188 1.486,-0.563 C 0.105,7.756 0.301,7.278 0.301,6.698 0.301,5.807 0.25,4.69 0.15,3.349 0.051,2.007 0,0.891 0,0 z"
           style="fill:none;stroke:#231f20;stroke-width:0.9139961;stroke-linecap:butt;stroke-linejoin:miter;stroke-miterlimit:4;stroke-opacity:1;stroke-dasharray:none"
           id="path3105-3-9"
           inkscape:connector-curvature="0" />
      </g>
      <g
         id="g3107-7-3"
         transform="matrix(1.6411449,0,0,-1.6411449,435.23653,590.75346)">
        <path
           d="m 0,0 c -0.991,0 -1.588,0.415 -1.787,1.247 -0.401,0.069 -0.811,0.105 -1.231,0.105 -2.414,0 -3.619,-0.331 -3.619,-0.992 0,-0.39 0.725,-0.916 2.177,-1.576 1.981,-0.911 3.323,-1.622 4.024,-2.133 1.452,-1.05 2.178,-2.237 2.178,-3.558 0,-1.722 -0.802,-3.029 -2.404,-3.92 -1.29,-0.711 -2.877,-1.066 -4.759,-1.066 -1.332,0 -2.548,0.205 -3.649,0.616 -1.502,0.56 -2.252,1.386 -2.252,2.478 0,1 0.595,1.501 1.787,1.501 0.459,0 1.126,-0.145 1.997,-0.435 0.87,-0.29 1.541,-0.436 2.013,-0.436 2.031,0 3.052,0.41 3.062,1.231 0,0.511 -0.705,1.077 -2.117,1.697 -2.063,0.911 -3.384,1.567 -3.965,1.968 -1.41,0.99 -2.117,2.197 -2.117,3.618 0,2.012 1.066,3.369 3.199,4.07 1.251,0.41 3.153,0.615 5.705,0.615 1.002,0 1.742,-0.13 2.224,-0.39 C 1.125,4.289 1.456,3.644 1.456,2.703 1.456,0.901 0.971,0 0,0"
           style="fill:#fff200;fill-opacity:1;fill-rule:nonzero;stroke:none"
           id="path3109-2-0"
           inkscape:connector-curvature="0" />
      </g>
      <g
         id="g3111-6-7"
         transform="matrix(1.6411449,0,0,-1.6411449,435.23653,590.75346)">
        <path
           d="m 0,0 c -0.991,0 -1.588,0.415 -1.787,1.247 -0.401,0.069 -0.811,0.105 -1.231,0.105 -2.414,0 -3.619,-0.331 -3.619,-0.992 0,-0.39 0.725,-0.916 2.177,-1.576 1.981,-0.911 3.323,-1.622 4.024,-2.133 1.452,-1.05 2.178,-2.237 2.178,-3.558 0,-1.722 -0.802,-3.029 -2.404,-3.92 -1.29,-0.711 -2.877,-1.066 -4.759,-1.066 -1.332,0 -2.548,0.205 -3.649,0.616 -1.502,0.56 -2.252,1.386 -2.252,2.478 0,1 0.595,1.501 1.787,1.501 0.459,0 1.126,-0.145 1.997,-0.435 0.87,-0.29 1.541,-0.436 2.013,-0.436 2.031,0 3.052,0.41 3.062,1.231 0,0.511 -0.705,1.077 -2.117,1.697 -2.063,0.911 -3.384,1.567 -3.965,1.968 -1.41,0.99 -2.117,2.197 -2.117,3.618 0,2.012 1.066,3.369 3.199,4.07 1.251,0.41 3.153,0.615 5.705,0.615 1.002,0 1.742,-0.13 2.224,-0.39 C 1.125,4.289 1.456,3.644 1.456,2.703 1.456,0.901 0.971,0 0,0 z"
           style="fill:none;stroke:#231f20;stroke-width:0.9139961;stroke-linecap:butt;stroke-linejoin:miter;stroke-miterlimit:4;stroke-opacity:1;stroke-dasharray:none"
           id="path3113-0-7"
           inkscape:connector-curvature="0" />
      </g>
      <g
         id="g3115-1-8"
         transform="matrix(1.6411449,0,0,-1.6411449,446.81433,579.17092)">
        <path
           d="m 0,0 c -0.641,0 -1.197,0.215 -1.667,0.646 -0.472,0.43 -0.706,0.956 -0.706,1.577 0,0.62 0.234,1.146 0.706,1.576 0.47,0.43 1.026,0.646 1.667,0.646 0.641,0 1.193,-0.216 1.658,-0.646 C 2.125,3.369 2.357,2.843 2.357,2.223 2.357,1.602 2.125,1.076 1.658,0.646 1.193,0.215 0.641,0 0,0 m 1.276,-11.007 c 0,-0.57 0.017,-1.487 0.052,-2.748 0.035,-1.261 0.053,-2.177 0.053,-2.748 0,-0.58 -0.195,-1.059 -0.586,-1.434 -0.391,-0.375 -0.886,-0.563 -1.486,-0.563 -0.601,0 -1.096,0.188 -1.487,0.563 -0.39,0.375 -0.586,0.854 -0.586,1.434 0,0.571 -0.017,1.487 -0.052,2.748 -0.036,1.261 -0.053,2.178 -0.053,2.748 0,0.891 0.051,2.007 0.15,3.349 0.1,1.341 0.151,2.457 0.151,3.348 0,0.581 0.195,1.059 0.586,1.435 0.39,0.375 0.885,0.562 1.486,0.562 0.601,0 1.096,-0.187 1.486,-0.562 0.391,-0.376 0.586,-0.854 0.586,-1.435 0,-0.891 -0.051,-2.007 -0.15,-3.348 -0.1,-1.342 -0.15,-2.458 -0.15,-3.349"
           style="fill:#fff200;fill-opacity:1;fill-rule:nonzero;stroke:none"
           id="path3117-6-7"
           inkscape:connector-curvature="0" />
      </g>
      <g
         id="g3119-5-3"
         transform="matrix(1.6411449,0,0,-1.6411449,446.81433,579.17092)">
        <path
           d="m 0,0 c -0.641,0 -1.197,0.215 -1.667,0.646 -0.472,0.43 -0.706,0.956 -0.706,1.577 0,0.62 0.234,1.146 0.706,1.576 0.47,0.43 1.026,0.646 1.667,0.646 0.641,0 1.193,-0.216 1.658,-0.646 C 2.125,3.369 2.357,2.843 2.357,2.223 2.357,1.602 2.125,1.076 1.658,0.646 1.193,0.215 0.641,0 0,0 z m 1.276,-11.007 c 0,-0.57 0.017,-1.487 0.052,-2.748 0.035,-1.261 0.053,-2.177 0.053,-2.748 0,-0.58 -0.195,-1.059 -0.586,-1.434 -0.391,-0.375 -0.886,-0.563 -1.486,-0.563 -0.601,0 -1.096,0.188 -1.487,0.563 -0.39,0.375 -0.586,0.854 -0.586,1.434 0,0.571 -0.017,1.487 -0.052,2.748 -0.036,1.261 -0.053,2.178 -0.053,2.748 0,0.891 0.051,2.007 0.15,3.349 0.1,1.341 0.151,2.457 0.151,3.348 0,0.581 0.195,1.059 0.586,1.435 0.39,0.375 0.885,0.562 1.486,0.562 0.601,0 1.096,-0.187 1.486,-0.562 0.391,-0.376 0.586,-0.854 0.586,-1.435 0,-0.891 -0.051,-2.007 -0.15,-3.348 -0.1,-1.342 -0.15,-2.458 -0.15,-3.349 z"
           style="fill:none;stroke:#231f20;stroke-width:0.9139961;stroke-linecap:butt;stroke-linejoin:miter;stroke-miterlimit:4;stroke-opacity:1;stroke-dasharray:none"
           id="path3121-7-0"
           inkscape:connector-curvature="0" />
      </g>
      <g
         id="g3123-5-3"
         transform="matrix(1.6411449,0,0,-1.6411449,473.49884,610.54337)">
        <path
           d="m 0,0 c -1.231,0 -1.917,0.606 -2.057,1.817 -0.14,1.032 -0.281,2.067 -0.422,3.109 -0.149,1.101 -0.224,2.137 -0.224,3.108 0,0.26 0.017,0.706 0.053,1.337 0.035,0.63 0.052,1.076 0.052,1.336 0,0.07 0.01,0.248 0.03,0.533 0.021,0.285 0.031,0.518 0.031,0.698 0,0.832 -0.201,1.247 -0.602,1.247 -0.857,0 -1.699,-0.551 -2.523,-1.654 C -6.487,10.428 -7.133,9.031 -7.6,7.338 -7.617,7 -7.659,6.549 -7.725,5.985 -7.781,5.523 -7.809,5.072 -7.809,4.631 c 0,-0.287 -0.032,-0.72 -0.097,-1.3 -0.066,-0.579 -0.098,-1.013 -0.098,-1.3 0,-0.585 -0.197,-1.069 -0.593,-1.454 C -8.992,0.193 -9.49,0 -10.091,0 c -0.6,0 -1.097,0.192 -1.487,0.574 -0.391,0.383 -0.586,0.864 -0.586,1.445 0,0.285 -0.029,0.716 -0.09,1.293 -0.059,0.575 -0.09,1.006 -0.09,1.292 0,0.978 0.071,2.339 0.211,4.083 0.141,1.743 0.209,3.104 0.209,4.083 0,0.305 -0.017,0.762 -0.051,1.368 -0.035,0.607 -0.052,1.058 -0.052,1.354 0,0.571 0.202,1.042 0.607,1.414 0.406,0.372 0.902,0.559 1.494,0.559 1.312,0 2.012,-0.787 2.103,-2.358 l 0.014,-0.166 c 1.462,1.473 3.004,2.208 4.625,2.208 1.893,0 3.199,-0.791 3.92,-2.373 0.481,-1.061 0.721,-2.648 0.721,-4.76 l 0,-1.066 C 1.447,8.49 1.441,8.164 1.441,7.974 1.441,7.193 1.549,6.187 1.764,4.956 1.979,3.725 2.088,2.723 2.088,1.953 2.088,1.392 1.887,0.927 1.486,0.556 1.086,0.186 0.591,0 0,0"
           style="fill:#fff200;fill-opacity:1;fill-rule:nonzero;stroke:none"
           id="path3125-4-8"
           inkscape:connector-curvature="0" />
      </g>
      <g
         id="g3127-1-2"
         transform="matrix(1.6411449,0,0,-1.6411449,473.49884,610.54337)">
        <path
           d="m 0,0 c -1.231,0 -1.917,0.606 -2.057,1.817 -0.14,1.032 -0.281,2.067 -0.422,3.109 -0.149,1.101 -0.224,2.137 -0.224,3.108 0,0.26 0.017,0.706 0.053,1.337 0.035,0.63 0.052,1.076 0.052,1.336 0,0.07 0.01,0.248 0.03,0.533 0.021,0.285 0.031,0.518 0.031,0.698 0,0.832 -0.201,1.247 -0.602,1.247 -0.857,0 -1.699,-0.551 -2.523,-1.654 C -6.487,10.428 -7.133,9.031 -7.6,7.338 -7.617,7 -7.659,6.549 -7.725,5.985 -7.781,5.523 -7.809,5.072 -7.809,4.631 c 0,-0.287 -0.032,-0.72 -0.097,-1.3 -0.066,-0.579 -0.098,-1.013 -0.098,-1.3 0,-0.585 -0.197,-1.069 -0.593,-1.454 C -8.992,0.193 -9.49,0 -10.091,0 c -0.6,0 -1.097,0.192 -1.487,0.574 -0.391,0.383 -0.586,0.864 -0.586,1.445 0,0.285 -0.029,0.716 -0.09,1.293 -0.059,0.575 -0.09,1.006 -0.09,1.292 0,0.978 0.071,2.339 0.211,4.083 0.141,1.743 0.209,3.104 0.209,4.083 0,0.305 -0.017,0.762 -0.051,1.368 -0.035,0.607 -0.052,1.058 -0.052,1.354 0,0.571 0.202,1.042 0.607,1.414 0.406,0.372 0.902,0.559 1.494,0.559 1.312,0 2.012,-0.787 2.103,-2.358 l 0.014,-0.166 c 1.462,1.473 3.004,2.208 4.625,2.208 1.893,0 3.199,-0.791 3.92,-2.373 0.481,-1.061 0.721,-2.648 0.721,-4.76 l 0,-1.066 C 1.447,8.49 1.441,8.164 1.441,7.974 1.441,7.193 1.549,6.187 1.764,4.956 1.979,3.725 2.088,2.723 2.088,1.953 2.088,1.392 1.887,0.927 1.486,0.556 1.086,0.186 0.591,0 0,0 z"
           style="fill:none;stroke:#231f20;stroke-width:0.9139961;stroke-linecap:butt;stroke-linejoin:miter;stroke-miterlimit:4;stroke-opacity:1;stroke-dasharray:none"
           id="path3129-2-5"
           inkscape:connector-curvature="0" />
      </g>
      <g
         id="g3131-0-2"
         transform="matrix(1.6411449,0,0,-1.6411449,494.53734,589.17648)">
        <path
           d="M 0,0 C -1.692,0 -3.009,-0.555 -3.949,-1.667 -4.79,-2.678 -5.21,-3.989 -5.21,-5.601 c 0,-1.191 0.225,-2.087 0.676,-2.688 0.45,-0.601 1.125,-0.9 2.027,-0.9 0.82,0 1.647,0.475 2.477,1.425 0.781,0.902 1.226,1.792 1.337,2.674 0.19,0.961 0.41,2.457 0.661,4.489 C 1.627,-0.4 1.292,-0.25 0.962,-0.15 0.631,-0.05 0.311,0 0,0 m 5.827,-3.003 c -0.421,-2.353 -0.672,-4.835 -0.752,-7.448 -0.099,-3.234 -0.64,-5.581 -1.621,-7.043 -1.312,-1.952 -3.635,-2.928 -6.967,-2.928 -3.895,0 -5.841,0.771 -5.841,2.313 0,0.55 0.173,0.996 0.525,1.336 0.35,0.34 0.81,0.51 1.381,0.51 0.451,0 1.096,-0.085 1.937,-0.255 0.841,-0.17 1.586,-0.255 2.239,-0.255 1.49,0 2.591,0.456 3.302,1.367 0.68,0.89 1.081,2.307 1.201,4.249 -0.509,-0.521 -1.085,-0.911 -1.726,-1.172 -0.641,-0.26 -1.342,-0.39 -2.103,-0.39 -1.992,0 -3.612,0.648 -4.858,1.945 -1.246,1.296 -1.869,2.956 -1.869,4.978 0,2.723 0.832,4.925 2.493,6.607 1.722,1.742 4.05,2.613 6.982,2.613 0.941,0 1.751,-0.115 2.433,-0.345 0.681,-0.231 1.231,-0.581 1.652,-1.052 1.271,-0.15 1.907,-0.901 1.907,-2.253 0,-0.67 -0.106,-1.596 -0.315,-2.777"
           style="fill:#fff200;fill-opacity:1;fill-rule:nonzero;stroke:none"
           id="path3133-0-0"
           inkscape:connector-curvature="0" />
      </g>
      <g
         id="g3135-1-3"
         transform="matrix(1.6411449,0,0,-1.6411449,494.53734,589.17648)">
        <path
           d="M 0,0 C -1.692,0 -3.009,-0.555 -3.949,-1.667 -4.79,-2.678 -5.21,-3.989 -5.21,-5.601 c 0,-1.191 0.225,-2.087 0.676,-2.688 0.45,-0.601 1.125,-0.9 2.027,-0.9 0.82,0 1.647,0.475 2.477,1.425 0.781,0.902 1.226,1.792 1.337,2.674 0.19,0.961 0.41,2.457 0.661,4.489 C 1.627,-0.4 1.292,-0.25 0.962,-0.15 0.631,-0.05 0.311,0 0,0 z m 5.827,-3.003 c -0.421,-2.353 -0.672,-4.835 -0.752,-7.448 -0.099,-3.234 -0.64,-5.581 -1.621,-7.043 -1.312,-1.952 -3.635,-2.928 -6.967,-2.928 -3.895,0 -5.841,0.771 -5.841,2.313 0,0.55 0.173,0.996 0.525,1.336 0.35,0.34 0.81,0.51 1.381,0.51 0.451,0 1.096,-0.085 1.937,-0.255 0.841,-0.17 1.586,-0.255 2.239,-0.255 1.49,0 2.591,0.456 3.302,1.367 0.68,0.89 1.081,2.307 1.201,4.249 -0.509,-0.521 -1.085,-0.911 -1.726,-1.172 -0.641,-0.26 -1.342,-0.39 -2.103,-0.39 -1.992,0 -3.612,0.648 -4.858,1.945 -1.246,1.296 -1.869,2.956 -1.869,4.978 0,2.723 0.832,4.925 2.493,6.607 1.722,1.742 4.05,2.613 6.982,2.613 0.941,0 1.751,-0.115 2.433,-0.345 0.681,-0.231 1.231,-0.581 1.652,-1.052 1.271,-0.15 1.907,-0.901 1.907,-2.253 0,-0.67 -0.106,-1.596 -0.315,-2.777 z"
           style="fill:none;stroke:#231f20;stroke-width:0.9139961;stroke-linecap:butt;stroke-linejoin:miter;stroke-miterlimit:4;stroke-opacity:1;stroke-dasharray:none"
           id="path3137-4-7"
           inkscape:connector-curvature="0" />
      </g>
      <g
         id="g3139-6-2"
         transform="matrix(1.6411449,0,0,-1.6411449,113.07519,569.65736)">
        <path
           d="M 0,0 C 1.105,2.695 3.25,4.342 6.963,4.338 16.324,4.324 18.361,-11.256 18.361,-11.256"
           style="fill:#ffffff;fill-opacity:1;fill-rule:nonzero;stroke:#231f20;stroke-width:0.45699805;stroke-linecap:round;stroke-linejoin:round;stroke-miterlimit:4;stroke-opacity:1;stroke-dasharray:none"
           id="path3141-0-9"
           inkscape:connector-curvature="0" />
      </g>
      <g
         id="g3143-7-7"
         transform="matrix(1.6411449,0,0,-1.6411449,143.41405,591.02031)">
        <path
           d="m 0,0 c 0,0 -8.189,16.381 -17.099,13.507 -8.909,-2.874 -6.035,-14.944 2.3,-18.105 C -5.291,-8.205 0,-6.896 0,-6.896"
           style="fill:#ffffff;fill-opacity:1;fill-rule:nonzero;stroke:#231f20;stroke-width:0.45699805;stroke-linecap:round;stroke-linejoin:round;stroke-miterlimit:4;stroke-opacity:1;stroke-dasharray:none"
           id="path3145-1-5"
           inkscape:connector-curvature="0" />
      </g>
      <g
         id="g3147-7-3"
         transform="matrix(1.6411449,0,0,-1.6411449,141.54052,598.15864)">
        <path
           d="m 0,0 c 0,0 -12.069,6.609 -14.226,8.478 -2.154,1.867 -3.017,3.448 -3.017,3.448"
           style="fill:none;stroke:#231f20;stroke-width:0.45699805;stroke-linecap:round;stroke-linejoin:round;stroke-miterlimit:4;stroke-opacity:1;stroke-dasharray:none"
           id="path3149-7-4"
           inkscape:connector-curvature="0" />
      </g>
      <g
         id="g3151-7-3"
         transform="matrix(1.6411449,0,0,-1.6411449,126.94484,589.65882)">
        <path
           d="M 0,0 C 0,0 0,3.492 -0.159,5.454 -0.291,7.086 -0.734,8.615 -0.734,8.615"
           style="fill:none;stroke:#231f20;stroke-width:0.45699805;stroke-linecap:round;stroke-linejoin:round;stroke-miterlimit:4;stroke-opacity:1;stroke-dasharray:none"
           id="path3153-7-2"
           inkscape:connector-curvature="0" />
      </g>
      <g
         id="g3155-3-1"
         transform="matrix(1.6411449,0,0,-1.6411449,123.93661,588.08267)">
        <path
           d="m 0,0 c 0,0 -2.444,-0.873 -4.648,-0.68 -1.581,0.139 -3.449,0.575 -3.449,0.575"
           style="fill:none;stroke:#231f20;stroke-width:0.45699805;stroke-linecap:round;stroke-linejoin:round;stroke-miterlimit:4;stroke-opacity:1;stroke-dasharray:none"
           id="path3157-3-1"
           inkscape:connector-curvature="0" />
      </g>
      <g
         id="g3159-5-3"
         transform="matrix(1.6411449,0,0,-1.6411449,132.34273,593.91398)">
        <path
           d="M 0,0 C 0,0 -1.912,-0.852 -2.873,-1.149 -4.598,-1.685 -6.466,-1.58 -6.466,-1.58"
           style="fill:none;stroke:#231f20;stroke-width:0.45699805;stroke-linecap:round;stroke-linejoin:round;stroke-miterlimit:4;stroke-opacity:1;stroke-dasharray:none"
           id="path3161-9-2"
           inkscape:connector-curvature="0" />
      </g>
      <g
         id="g3163-9-5"
         transform="matrix(1.6411449,0,0,-1.6411449,156.27554,622.44003)">
        <path
           d="m 0,0 c -3.823,0 -7.677,0.718 -8.548,1.193 -0.647,0.353 -1.666,0.548 -2.869,0.548 -0.548,0 -0.93,-0.041 -0.944,-0.042 -0.022,-0.003 -0.044,-0.004 -0.066,-0.004 -0.223,0 -0.431,0.126 -0.535,0.329 -0.112,0.223 -0.076,0.492 0.093,0.676 0.031,0.034 3.092,3.39 3.904,5.553 0.671,1.792 0.511,9.565 0.393,12.409 0.287,5.221 -1.583,12.652 -2.936,14.952 -0.269,0.458 -0.539,0.865 -0.787,1.239 -1.059,1.597 -1.973,2.976 -0.325,5.172 0.661,0.881 2.18,1.066 3.337,1.066 4.757,0 13.021,-2.937 15.658,-9.241 C 9.122,27.28 3.156,23.035 0.427,21.498 3.812,20.149 12.413,15.896 12.169,7.594 12.024,2.697 7.703,0 0,0"
           style="fill:#ffffff;fill-opacity:1;fill-rule:nonzero;stroke:none"
           id="path3165-8-3"
           inkscape:connector-curvature="0" />
      </g>
      <g
         id="g3167-1-5"
         transform="matrix(1.6411449,0,0,-1.6411449,141.04047,550.73612)">
        <path
           d="m 0,0 c -1.882,0 -3.166,-0.439 -3.816,-1.306 -1.903,-2.535 -0.781,-4.228 0.304,-5.864 0.251,-0.379 0.511,-0.771 0.771,-1.212 1.321,-2.246 3.125,-9.661 2.853,-14.556 -0.002,-0.039 -0.002,-0.078 -0.001,-0.116 0.163,-3.906 0.21,-10.666 -0.355,-12.175 -0.639,-1.702 -2.948,-4.444 -3.784,-5.357 -0.338,-0.369 -0.411,-0.908 -0.186,-1.354 0.207,-0.406 0.622,-0.657 1.07,-0.657 0.044,0 0.088,0.003 0.132,0.008 0.002,0 0.364,0.038 0.878,0.038 1.105,0 2.022,-0.168 2.582,-0.474 0.947,-0.516 4.86,-1.267 8.835,-1.267 8.079,0 12.613,2.904 12.769,8.177 0.23,7.842 -7.01,12.198 -10.983,13.993 3.65,2.328 7.565,6.721 5.143,12.512 C 13.471,-3.055 4.917,0 0,0 m 0,-1.2 c 4.48,0 12.587,-2.852 15.104,-8.873 3.305,-7.902 -6.896,-12.214 -6.896,-12.214 0,0 12.932,-4.023 12.645,-13.793 -0.166,-5.625 -6.187,-7.011 -11.57,-7.011 -3.968,0 -7.59,0.754 -8.261,1.12 -0.949,0.517 -2.259,0.62 -3.156,0.62 -0.596,0 -1.01,-0.045 -1.01,-0.045 0,0 3.161,3.448 4.024,5.747 0.861,2.299 0.431,12.645 0.431,12.645 0.287,5.173 -1.582,12.788 -3.018,15.231 -1.437,2.442 -2.874,3.448 -1.149,5.747 0.41,0.547 1.457,0.826 2.856,0.826"
           style="fill:#231f20;fill-opacity:1;fill-rule:nonzero;stroke:none"
           id="path3169-8-1"
           inkscape:connector-curvature="0" />
      </g>
      <g
         id="g3171-2-2"
         transform="matrix(1.6411449,0,0,-1.6411449,143.19118,588.48967)">
        <path
           d="m 0,0 c 0,0 0.431,-10.345 -0.431,-12.645 -0.863,-2.299 -4.023,-5.747 -4.023,-5.747 0,0 2.586,0.287 4.166,-0.575 1.581,-0.862 19.542,-3.88 19.83,5.891 C 19.829,-3.305 7.49,0.603 7.49,0.603"
           style="fill:#fff200;fill-opacity:1;fill-rule:nonzero;stroke:#231f20;stroke-width:0.45699805;stroke-linecap:round;stroke-linejoin:round;stroke-miterlimit:4;stroke-opacity:1;stroke-dasharray:none"
           id="path3173-6-2"
           inkscape:connector-curvature="0" />
      </g>
      <g
         id="g3175-6-2"
         transform="matrix(1.6411449,0,0,-1.6411449,160.24219,576.52654)">
        <path
           d="m 0,0 c 0,0 -1.344,-1.419 -0.991,-2.523 0.351,-1.104 -1.716,-2.193 -2.155,-0.986 -0.598,1.643 -2.353,3.216 -2.353,3.216"
           style="fill:#231f20;fill-opacity:1;fill-rule:nonzero;stroke:#231f20;stroke-width:0.45699805;stroke-linecap:round;stroke-linejoin:round;stroke-miterlimit:4;stroke-opacity:1;stroke-dasharray:none"
           id="path3177-0-6"
           inkscape:connector-curvature="0" />
      </g>
      <g
         id="g3179-3-4"
         transform="matrix(1.6411449,0,0,-1.6411449,162.42179,572.76258)">
        <path
           d="M 0,0 C 0,0 0.236,-1.271 -1.328,-2.293 -2.891,-3.315 -7.445,-2.409 -7.445,-2.409"
           style="fill:none;stroke:#231f20;stroke-width:0.45699805;stroke-linecap:round;stroke-linejoin:round;stroke-miterlimit:4;stroke-opacity:1;stroke-dasharray:none"
           id="path3181-8-0"
           inkscape:connector-curvature="0" />
      </g>
      <g
         id="g3183-0-7"
         transform="matrix(1.6411449,0,0,-1.6411449,149.9609,574.12324)">
        <path
           d="M 0,0 C 0,0 0.431,-1.527 -0.788,-2.047"
           style="fill:none;stroke:#231f20;stroke-width:0.45699805;stroke-linecap:round;stroke-linejoin:round;stroke-miterlimit:4;stroke-opacity:1;stroke-dasharray:none"
           id="path3185-1-0"
           inkscape:connector-curvature="0" />
      </g>
      <g
         id="g3187-2-3"
         transform="matrix(1.6411449,0,0,-1.6411449,157.1762,579.58202)">
        <path
           d="m 0,0 c -0.372,0.135 -1.038,-0.038 -1.218,-0.09 0.197,-0.058 0.386,-0.141 0.526,-0.27 0.357,-0.328 0.783,-1.112 0.976,-1.489 0.305,0.235 0.547,0.545 0.6,0.825 0,0 -0.282,0.806 -0.884,1.024"
           style="fill:#ffffff;fill-opacity:1;fill-rule:nonzero;stroke:none"
           id="path3189-5-4"
           inkscape:connector-curvature="0" />
      </g>
      <g
         id="g3191-0-0"
         transform="matrix(1.6411449,0,0,-1.6411449,157.1762,579.58202)">
        <path
           d="m 0,0 c -0.372,0.135 -1.038,-0.038 -1.218,-0.09 0.197,-0.058 0.386,-0.141 0.526,-0.27 0.357,-0.328 0.783,-1.112 0.976,-1.489 0.305,0.235 0.547,0.545 0.6,0.825 0,0 -0.282,0.806 -0.884,1.024 z"
           style="fill:none;stroke:#231f20;stroke-width:0.22849903;stroke-linecap:round;stroke-linejoin:round;stroke-miterlimit:4;stroke-opacity:1;stroke-dasharray:none"
           id="path3193-9-0"
           inkscape:connector-curvature="0" />
      </g>
      <g
         id="g3195-4-5"
         transform="matrix(1.6411449,0,0,-1.6411449,148.25414,570.16071)">
        <path
           d="m 0,0 c 0,0 0.799,0.758 1.676,0.958 0.947,0.216 1.556,-0.239 1.556,-0.239 0,0 0.108,0.719 0.17,1.348 C 3.439,2.444 1.756,6.184 -0.279,4.628 -2.15,3.198 0.08,0.519 0.08,0.519"
           style="fill:none;stroke:#231f20;stroke-width:0.45699805;stroke-linecap:round;stroke-linejoin:round;stroke-miterlimit:4;stroke-opacity:1;stroke-dasharray:none"
           id="path3197-7-3"
           inkscape:connector-curvature="0" />
      </g>
      <g
         id="g3199-8-1"
         transform="matrix(1.6411449,0,0,-1.6411449,149.10669,562.63129)">
        <path
           d="m 0,0 c 0,0 0.918,-0.438 1.436,-1.835 0.337,-0.91 0.359,-1.755 0.359,-1.755 0,0 -0.639,0.12 -1.277,-0.279 -0.637,-0.4 -0.837,-0.559 -0.837,-0.559 0,0 -1.036,1.037 -1.158,2.394 C -1.596,-0.678 -0.559,0.638 0,0"
           style="fill:#231f20;fill-opacity:1;fill-rule:nonzero;stroke:none"
           id="path3201-3-0"
           inkscape:connector-curvature="0" />
      </g>
      <g
         id="g3203-5-6"
         transform="matrix(1.6411449,0,0,-1.6411449,148.81177,565.37988)">
        <path
           d="m 0,0 c 0,-0.309 -0.223,-0.559 -0.499,-0.559 -0.275,0 -0.499,0.25 -0.499,0.559 0,0.309 0.224,0.558 0.499,0.558 C -0.223,0.558 0,0.309 0,0"
           style="fill:#ffffff;fill-opacity:1;fill-rule:nonzero;stroke:none"
           id="path3205-1-7"
           inkscape:connector-curvature="0" />
      </g>
      <g
         id="g3207-2-5"
         transform="matrix(1.6411449,0,0,-1.6411449,161.85445,567.48416)">
        <path
           d="m 0,0 c 0,0 -1.178,0.339 -1.996,0.175 -0.883,-0.177 -1.225,-0.793 -1.225,-0.793 0,0 -0.263,0.636 -0.356,0.975 -0.241,0.885 -0.776,3.471 1.274,3.518 1.756,0.04 2.039,-3.466 2.039,-3.466"
           style="fill:none;stroke:#231f20;stroke-width:0.45699805;stroke-linecap:round;stroke-linejoin:round;stroke-miterlimit:4;stroke-opacity:1;stroke-dasharray:none"
           id="path3209-0-0"
           inkscape:connector-curvature="0" />
      </g>
      <g
         id="g3211-1-0"
         transform="matrix(1.6411449,0,0,-1.6411449,157.81888,561.45575)">
        <path
           d="m 0,0 c 0,0 0.822,-0.463 1.213,-1.789 0.256,-0.862 0.223,-1.645 0.223,-1.645 0,0 -0.584,0.151 -1.2,-0.178 -0.615,-0.329 -0.809,-0.465 -0.809,-0.465 0,0 -0.894,1.026 -0.919,2.287 C -1.518,-0.526 -0.476,0.626 0,0"
           style="fill:#231f20;fill-opacity:1;fill-rule:nonzero;stroke:none"
           id="path3213-6-4"
           inkscape:connector-curvature="0" />
      </g>
      <g
         id="g3215-4-5"
         transform="matrix(1.6411449,0,0,-1.6411449,157.37494,563.97998)">
        <path
           d="m 0,0 c -0.021,-0.286 -0.242,-0.503 -0.497,-0.486 -0.254,0.018 -0.445,0.263 -0.426,0.549 0.02,0.286 0.242,0.502 0.496,0.485 C -0.171,0.53 0.019,0.285 0,0"
           style="fill:#ffffff;fill-opacity:1;fill-rule:nonzero;stroke:none"
           id="path3217-0-4"
           inkscape:connector-curvature="0" />
      </g>
      <g
         id="g3219-6-9"
         transform="matrix(1.6411449,0,0,-1.6411449,159.79661,561.22975)">
        <path
           d="m 0,0 c 0,0 0.751,0.436 1.144,1.091 0.393,0.655 0.428,1.71 0.428,1.71"
           style="fill:none;stroke:#231f20;stroke-width:0.45699805;stroke-linecap:round;stroke-linejoin:round;stroke-miterlimit:4;stroke-opacity:1;stroke-dasharray:none"
           id="path3221-1-5"
           inkscape:connector-curvature="0" />
      </g>
      <g
         id="g3223-8-6"
         transform="matrix(1.6411449,0,0,-1.6411449,158.26445,561.11275)">
        <path
           d="m 0,0 c 0,0 0.69,0.529 0.997,1.227 0.307,0.699 0.208,1.75 0.208,1.75"
           style="fill:none;stroke:#231f20;stroke-width:0.45699805;stroke-linecap:round;stroke-linejoin:round;stroke-miterlimit:4;stroke-opacity:1;stroke-dasharray:none"
           id="path3225-9-4"
           inkscape:connector-curvature="0" />
      </g>
      <g
         id="g3227-8-8"
         transform="matrix(1.6411449,0,0,-1.6411449,157.28044,560.9268)">
        <path
           d="M 0,0 C 0,0 0.541,0.779 0.627,1.608 0.713,2.439 0.26,3.502 0.26,3.502"
           style="fill:none;stroke:#231f20;stroke-width:0.45699805;stroke-linecap:round;stroke-linejoin:round;stroke-miterlimit:4;stroke-opacity:1;stroke-dasharray:none"
           id="path3229-4-2"
           inkscape:connector-curvature="0" />
      </g>
      <g
         id="g3231-1-1"
         transform="matrix(1.6411449,0,0,-1.6411449,160.87681,560.40279)">
        <path
           d="m 0,0 c 0.174,0.164 0.351,0.363 0.485,0.587 0.085,0.14 0.153,0.298 0.206,0.46"
           style="fill:none;stroke:#ffffff;stroke-width:0.45699805;stroke-linecap:round;stroke-linejoin:round;stroke-miterlimit:4;stroke-opacity:1;stroke-dasharray:none"
           id="path3233-4-6"
           inkscape:connector-curvature="0" />
      </g>
      <g
         id="g3235-3-8"
         transform="matrix(1.6411449,0,0,-1.6411449,159.75822,559.38905)">
        <path
           d="M 0,0 C 0.031,0.057 0.061,0.116 0.087,0.177 0.24,0.526 0.293,0.963 0.307,1.313"
           style="fill:none;stroke:#ffffff;stroke-width:0.45699805;stroke-linecap:round;stroke-linejoin:round;stroke-miterlimit:4;stroke-opacity:1;stroke-dasharray:none"
           id="path3237-9-3"
           inkscape:connector-curvature="0" />
      </g>
      <g
         id="g3239-8-1"
         transform="matrix(1.6411449,0,0,-1.6411449,158.30925,558.28718)">
        <path
           d="M 0,0 C 0.057,0.548 -0.121,1.198 -0.248,1.576"
           style="fill:none;stroke:#ffffff;stroke-width:0.45699805;stroke-linecap:round;stroke-linejoin:round;stroke-miterlimit:4;stroke-opacity:1;stroke-dasharray:none"
           id="path3241-8-4"
           inkscape:connector-curvature="0" />
      </g>
      <g
         id="g3243-0-8"
         transform="matrix(1.6411449,0,0,-1.6411449,150.36972,561.89245)">
        <path
           d="M 0,0 C 0,0 0.619,0.666 0.781,1.404 0.943,2.142 0.58,3.119 0.58,3.119"
           style="fill:none;stroke:#231f20;stroke-width:0.45699805;stroke-linecap:round;stroke-linejoin:round;stroke-miterlimit:4;stroke-opacity:1;stroke-dasharray:none"
           id="path3245-8-4"
           inkscape:connector-curvature="0" />
      </g>
      <g
         id="g3247-7-9"
         transform="matrix(1.6411449,0,0,-1.6411449,148.72529,562.3331)">
        <path
           d="M 0,0 C 0,0 0.52,0.729 0.575,1.478 0.63,2.225 0.129,3.15 0.129,3.15"
           style="fill:none;stroke:#231f20;stroke-width:0.45699805;stroke-linecap:round;stroke-linejoin:round;stroke-miterlimit:4;stroke-opacity:1;stroke-dasharray:none"
           id="path3249-7-2"
           inkscape:connector-curvature="0" />
      </g>
      <g
         id="g3251-8-0"
         transform="matrix(1.6411449,0,0,-1.6411449,147.62588,562.57435)">
        <path
           d="M 0,0 C 0,0 0.25,0.828 0.045,1.55 -0.16,2.272 -0.961,3.013 -0.961,3.013"
           style="fill:none;stroke:#231f20;stroke-width:0.45699805;stroke-linecap:round;stroke-linejoin:round;stroke-miterlimit:4;stroke-opacity:1;stroke-dasharray:none"
           id="path3253-3-7"
           inkscape:connector-curvature="0" />
      </g>
      <g
         id="g3255-8-0"
         transform="matrix(1.6411449,0,0,-1.6411449,162.5068,591.02031)">
        <path
           d="m 0,0 c 0,0 -0.692,-3.018 -4.401,-5.092 -3.711,-2.076 -7.233,-1.511 -7.233,-1.511 l -0.251,-4.149 c 0,0 2.433,-0.448 6.917,0.817 7.358,2.075 8.364,7.357 8.364,7.357 0,0 -0.441,0.504 -1.447,1.321 C 0.942,-0.44 0,0 0,0"
           style="fill:#231f20;fill-opacity:1;fill-rule:nonzero;stroke:none"
           id="path3257-3-6"
           inkscape:connector-curvature="0" />
      </g>
      <g
         id="g3259-7-0"
         transform="matrix(1.6411449,0,0,-1.6411449,141.24725,612.17566)">
        <path
           d="m 0,0 c 0,0 2.641,-2.452 8.867,-0.754 6.225,1.697 10.438,7.797 10.438,7.797 0,0 1.07,-2.453 1.321,-3.836 0.251,-1.384 0.101,-1.85 0.101,-1.85 0,0 -1.672,-3.118 -7.018,-4.501 C 8.363,-4.527 1.697,-3.709 1.32,-3.835 0.943,-3.961 0.063,-4.276 0.063,-4.276 c 0,0 -1.069,0.315 -1.824,0.315 -0.755,0 -1.509,0.002 -1.509,0.002 0,0 1.824,2.073 2.076,2.45 C -0.943,-1.131 0,0 0,0"
           style="fill:#231f20;fill-opacity:1;fill-rule:nonzero;stroke:none"
           id="path3261-1-7"
           inkscape:connector-curvature="0" />
      </g>
      <g
         id="g3263-0-0"
         transform="matrix(1.6411449,0,0,-1.6411449,143.20891,588.12993)">
        <path
           d="m 0,0 c 0,0 2.225,-0.178 3.545,0.011 1.32,0.188 3.727,0.621 3.727,0.621 0,0 0.022,-0.255 0.273,-0.444 C 7.797,0 9.307,-0.252 9.307,-0.566 9.307,-0.881 7.608,-2.075 5.659,-2.704 3.71,-3.333 0.251,-3.144 0.251,-3.144 L 0,0 z"
           style="fill:#231f20;fill-opacity:1;fill-rule:nonzero;stroke:none"
           id="path3265-7-5"
           inkscape:connector-curvature="0" />
      </g>
      <g
         id="g3267-3-6"
         transform="matrix(1.6411449,0,0,-1.6411449,413.87278,555.84549)">
        <path
           d="m 0,0 c -0.102,-2.091 -1.527,-5.17 -3.342,-5.082 -1.816,0.09 -3.334,3.312 -3.231,5.404 0.102,2.092 1.657,3.716 3.471,3.628 C -1.286,3.86 0.103,2.093 0,0"
           style="fill:#fff200;fill-opacity:1;fill-rule:nonzero;stroke:none"
           id="path3269-4-7"
           inkscape:connector-curvature="0" />
      </g>
      <g
         id="g3271-96-3"
         transform="matrix(1.6411449,0,0,-1.6411449,413.87278,555.84549)">
        <path
           d="m 0,0 c -0.102,-2.091 -1.527,-5.17 -3.342,-5.082 -1.816,0.09 -3.334,3.312 -3.231,5.404 0.102,2.092 1.657,3.716 3.471,3.628 C -1.286,3.86 0.103,2.093 0,0 z"
           style="fill:none;stroke:#231f20;stroke-width:0.9139961;stroke-linecap:round;stroke-linejoin:round;stroke-miterlimit:4;stroke-opacity:1;stroke-dasharray:none"
           id="path3273-5-8"
           inkscape:connector-curvature="0" />
      </g>
      <g
         id="g3275-1-4"
         transform="matrix(1.6411449,0,0,-1.6411449,420.94709,566.3503)">
        <path
           d="M 0,0 C -1.662,-0.877 -5.506,-1.15 -6.253,0.267 -7,1.683 -4.367,4.253 -2.705,5.13 -1.043,6.007 0.912,5.57 1.658,4.153 2.406,2.735 1.664,0.876 0,0"
           style="fill:#fff200;fill-opacity:1;fill-rule:nonzero;stroke:none"
           id="path3277-0-9"
           inkscape:connector-curvature="0" />
      </g>
      <g
         id="g3279-9-2"
         transform="matrix(1.6411449,0,0,-1.6411449,420.94709,566.3503)">
        <path
           d="M 0,0 C -1.662,-0.877 -5.506,-1.15 -6.253,0.267 -7,1.683 -4.367,4.253 -2.705,5.13 -1.043,6.007 0.912,5.57 1.658,4.153 2.406,2.735 1.664,0.876 0,0 z"
           style="fill:none;stroke:#231f20;stroke-width:0.9139961;stroke-linecap:round;stroke-linejoin:round;stroke-miterlimit:4;stroke-opacity:1;stroke-dasharray:none"
           id="path3281-9-6"
           inkscape:connector-curvature="0" />
      </g>
      <g
         id="g3283-6-5"
         transform="matrix(1.6411449,0,0,-1.6411449,398.97266,557.36158)">
        <path
           d="M 0,0 C 1.554,-0.373 4.767,-2.488 4.365,-4.159 3.964,-5.83 0.101,-6.425 -1.454,-6.051 -3.008,-5.678 -3.942,-4.021 -3.541,-2.35 -3.14,-0.679 -1.555,0.374 0,0"
           style="fill:#fff200;fill-opacity:1;fill-rule:nonzero;stroke:none"
           id="path3285-8-7"
           inkscape:connector-curvature="0" />
      </g>
      <g
         id="g3287-3-7"
         transform="matrix(1.6411449,0,0,-1.6411449,398.97266,557.36158)">
        <path
           d="M 0,0 C 1.554,-0.373 4.767,-2.488 4.365,-4.159 3.964,-5.83 0.101,-6.425 -1.454,-6.051 -3.008,-5.678 -3.942,-4.021 -3.541,-2.35 -3.14,-0.679 -1.555,0.374 0,0 z"
           style="fill:none;stroke:#231f20;stroke-width:0.9139961;stroke-linecap:round;stroke-linejoin:round;stroke-miterlimit:4;stroke-opacity:1;stroke-dasharray:none"
           id="path3289-4-4"
           inkscape:connector-curvature="0" />
      </g>
      <g
         id="g3291-8-5"
         transform="matrix(1.6411449,0,0,-1.6411449,407.73456,566.28859)">
        <path
           d="m 0,0 c 1.375,-1.073 0.696,-5.193 -0.365,-6.553 -1.063,-1.36 -3.036,-1.591 -4.411,-0.518 -1.374,1.074 -1.628,3.046 -0.566,4.405 C -4.281,-1.306 -1.374,1.074 0,0"
           style="fill:#fff200;fill-opacity:1;fill-rule:nonzero;stroke:none"
           id="path3293-4-7"
           inkscape:connector-curvature="0" />
      </g>
      <g
         id="g3295-9-9"
         transform="matrix(1.6411449,0,0,-1.6411449,407.73456,566.28859)">
        <path
           d="m 0,0 c 1.375,-1.073 0.696,-5.193 -0.365,-6.553 -1.063,-1.36 -3.036,-1.591 -4.411,-0.518 -1.374,1.074 -1.628,3.046 -0.566,4.405 C -4.281,-1.306 -1.374,1.074 0,0 z"
           style="fill:none;stroke:#231f20;stroke-width:0.9139961;stroke-linecap:round;stroke-linejoin:round;stroke-miterlimit:4;stroke-opacity:1;stroke-dasharray:none"
           id="path3297-9-8"
           inkscape:connector-curvature="0" />
      </g>
      <g
         id="g3299-2-3"
         transform="matrix(1.6411449,0,0,-1.6411449,418.72892,569.56119)">
        <path
           d="m 0,0 c 1.094,-1.251 0.99,-3.132 -0.232,-4.201 -1.221,-1.067 -3.1,-0.917 -4.194,0.336 C -5.52,-2.613 -7.338,0.92 -6.116,1.988 -4.895,3.056 -1.096,1.253 0,0"
           style="fill:#fff200;fill-opacity:1;fill-rule:nonzero;stroke:none"
           id="path3301-5-0"
           inkscape:connector-curvature="0" />
      </g>
      <g
         id="g3303-5-2"
         transform="matrix(1.6411449,0,0,-1.6411449,418.72892,569.56119)">
        <path
           d="m 0,0 c 1.094,-1.251 0.99,-3.132 -0.232,-4.201 -1.221,-1.067 -3.1,-0.917 -4.194,0.336 C -5.52,-2.613 -7.338,0.92 -6.116,1.988 -4.895,3.056 -1.096,1.253 0,0 z"
           style="fill:none;stroke:#231f20;stroke-width:0.9139961;stroke-linecap:round;stroke-linejoin:round;stroke-miterlimit:4;stroke-opacity:1;stroke-dasharray:none"
           id="path3305-3-2"
           inkscape:connector-curvature="0" />
      </g>
      <g
         id="g3307-3-3"
         transform="matrix(1.6411449,0,0,-1.6411449,413.87918,563.81965)">
        <path
           d="M 0,0 3.234,1.339"
           style="fill:none;stroke:#231f20;stroke-width:0.45699805;stroke-linecap:round;stroke-linejoin:round;stroke-miterlimit:4;stroke-opacity:1;stroke-dasharray:none"
           id="path3309-37-6"
           inkscape:connector-curvature="0" />
      </g>
      <g
         id="g3311-4-7"
         transform="matrix(1.6411449,0,0,-1.6411449,408.2041,560.15826)">
        <path
           d="M 0,0 -0.112,3.347"
           style="fill:none;stroke:#231f20;stroke-width:0.45699805;stroke-linecap:round;stroke-linejoin:round;stroke-miterlimit:4;stroke-opacity:1;stroke-dasharray:none"
           id="path3313-3-1"
           inkscape:connector-curvature="0" />
      </g>
      <g
         id="g3315-8-5"
         transform="matrix(1.6411449,0,0,-1.6411449,404.42979,563.45351)">
        <path
           d="M 0,0 -3.346,0.782"
           style="fill:none;stroke:#231f20;stroke-width:0.45699805;stroke-linecap:round;stroke-linejoin:round;stroke-miterlimit:4;stroke-opacity:1;stroke-dasharray:none"
           id="path3317-0-5"
           inkscape:connector-curvature="0" />
      </g>
      <g
         id="g3319-88-4"
         transform="matrix(1.6411449,0,0,-1.6411449,406.6271,568.94429)">
        <path
           d="M 0,0 -1.339,-3.235"
           style="fill:none;stroke:#231f20;stroke-width:0.45699805;stroke-linecap:round;stroke-linejoin:round;stroke-miterlimit:4;stroke-opacity:1;stroke-dasharray:none"
           id="path3321-0-0"
           inkscape:connector-curvature="0" />
      </g>
      <g
         id="g3323-6-2"
         transform="matrix(1.6411449,0,0,-1.6411449,411.31651,568.57716)">
        <path
           d="M 0,0 2.454,-2.455"
           style="fill:none;stroke:#231f20;stroke-width:0.45699805;stroke-linecap:round;stroke-linejoin:round;stroke-miterlimit:4;stroke-opacity:1;stroke-dasharray:none"
           id="path3325-8-6"
           inkscape:connector-curvature="0" />
      </g>
      <g
         id="g3327-19-0"
         transform="matrix(1.6411449,0,0,-1.6411449,413.92724,565.00882)">
        <path
           d="m 0,0 c 0,-1.771 -1.436,-3.207 -3.208,-3.207 -1.771,0 -3.208,1.436 -3.208,3.207 0,1.771 1.437,3.208 3.208,3.208 C -1.436,3.208 0,1.771 0,0"
           style="fill:#231f20;fill-opacity:1;fill-rule:nonzero;stroke:none"
           id="path3329-89-6"
           inkscape:connector-curvature="0" />
      </g>
      <g
         id="g3331-7-1"
         transform="matrix(1.6411449,0,0,-1.6411449,413.92724,565.00882)">
        <path
           d="m 0,0 c 0,-1.771 -1.436,-3.207 -3.208,-3.207 -1.771,0 -3.208,1.436 -3.208,3.207 0,1.771 1.437,3.208 3.208,3.208 C -1.436,3.208 0,1.771 0,0 z"
           style="fill:none;stroke:#ffffff;stroke-width:0.45699805;stroke-linecap:round;stroke-linejoin:round;stroke-miterlimit:4;stroke-opacity:1;stroke-dasharray:none"
           id="path3333-22-1"
           inkscape:connector-curvature="0" />
      </g>
      <g
         id="g3335-8-1"
         transform="matrix(1.6411449,0,0,-1.6411449,406.26966,561.21925)">
        <path
           d="M 0,0 C 0.142,0.128 0.342,0.138 0.449,0.021 0.556,-0.096 0.527,-0.295 0.387,-0.424 0.244,-0.554 0.043,-0.563 -0.063,-0.446 -0.17,-0.33 -0.142,-0.129 0,0"
           style="fill:#ffffff;fill-opacity:1;fill-rule:nonzero;stroke:none"
           id="path3337-2-7"
           inkscape:connector-curvature="0" />
      </g>
      <g
         id="g3339-8-3"
         transform="matrix(1.6411449,0,0,-1.6411449,408.50706,560.86673)">
        <path
           d="M 0,0 C 0.123,0.113 0.299,0.122 0.393,0.02 0.484,-0.083 0.461,-0.256 0.337,-0.369 0.215,-0.482 0.038,-0.49 -0.055,-0.388 -0.148,-0.286 -0.123,-0.112 0,0"
           style="fill:#ffffff;fill-opacity:1;fill-rule:nonzero;stroke:none"
           id="path3341-9-0"
           inkscape:connector-curvature="0" />
      </g>
      <g
         id="g3343-0-0"
         transform="matrix(1.6411449,0,0,-1.6411449,407.48773,560.95881)">
        <path
           d="M 0,0 C 0.123,0.113 0.299,0.123 0.391,0.02 0.484,-0.083 0.461,-0.256 0.336,-0.369 0.213,-0.481 0.037,-0.49 -0.056,-0.388 -0.15,-0.287 -0.125,-0.111 0,0"
           style="fill:#ffffff;fill-opacity:1;fill-rule:nonzero;stroke:none"
           id="path3345-7-4"
           inkscape:connector-curvature="0" />
      </g>
      <g
         id="g3347-8-8"
         transform="matrix(1.6411449,0,0,-1.6411449,409.58397,561.27144)">
        <path
           d="M 0,0 C 0.121,0.113 0.297,0.122 0.391,0.02 0.484,-0.082 0.46,-0.256 0.336,-0.369 0.213,-0.481 0.037,-0.49 -0.057,-0.388 -0.149,-0.287 -0.125,-0.112 0,0"
           style="fill:#ffffff;fill-opacity:1;fill-rule:nonzero;stroke:none"
           id="path3349-1-3"
           inkscape:connector-curvature="0" />
      </g>
      <g
         id="g3351-5-0"
         transform="matrix(1.6411449,0,0,-1.6411449,407.34348,562.34836)">
        <path
           d="M 0,0 C 0.103,0.094 0.249,0.102 0.326,0.017 0.404,-0.068 0.384,-0.214 0.281,-0.308 0.177,-0.403 0.031,-0.41 -0.047,-0.325 -0.125,-0.239 -0.104,-0.094 0,0"
           style="fill:#ffffff;fill-opacity:1;fill-rule:nonzero;stroke:none"
           id="path3353-8-1"
           inkscape:connector-curvature="0" />
      </g>
      <g
         id="g3355-6-2"
         transform="matrix(1.6411449,0,0,-1.6411449,407.18312,561.83551)">
        <path
           d="M 0,0 C 0.104,0.094 0.25,0.101 0.327,0.017 0.406,-0.069 0.385,-0.215 0.281,-0.309 0.178,-0.403 0.031,-0.41 -0.046,-0.325 -0.124,-0.24 -0.104,-0.094 0,0"
           style="fill:#ffffff;fill-opacity:1;fill-rule:nonzero;stroke:none"
           id="path3357-12-9"
           inkscape:connector-curvature="0" />
      </g>
      <g
         id="g3359-4-0"
         transform="matrix(1.6411449,0,0,-1.6411449,408.76668,561.92446)">
        <path
           d="M 0,0 C 0.104,0.094 0.249,0.102 0.326,0.017 0.404,-0.069 0.384,-0.214 0.281,-0.309 0.179,-0.403 0.031,-0.409 -0.047,-0.325 -0.125,-0.239 -0.104,-0.094 0,0"
           style="fill:#ffffff;fill-opacity:1;fill-rule:nonzero;stroke:none"
           id="path3361-2-3"
           inkscape:connector-curvature="0" />
      </g>
      <g
         id="g3363-5-8"
         transform="matrix(1.6411449,0,0,-1.6411449,406.33385,562.20969)">
        <path
           d="M 0,0 C 0.104,0.094 0.25,0.102 0.328,0.016 0.405,-0.069 0.385,-0.215 0.281,-0.31 0.179,-0.403 0.031,-0.411 -0.047,-0.325 -0.125,-0.24 -0.104,-0.095 0,0"
           style="fill:#ffffff;fill-opacity:1;fill-rule:nonzero;stroke:none"
           id="path3365-8-8"
           inkscape:connector-curvature="0" />
      </g>
      <g
         id="g3367-6-5"
         transform="matrix(1.6411449,0,0,-1.6411449,405.66706,561.8675)">
        <path
           d="M 0,0 C 0.104,0.094 0.251,0.101 0.328,0.016 0.406,-0.07 0.386,-0.215 0.281,-0.31 0.179,-0.404 0.032,-0.411 -0.045,-0.326 -0.123,-0.24 -0.104,-0.095 0,0"
           style="fill:#ffffff;fill-opacity:1;fill-rule:nonzero;stroke:none"
           id="path3369-2-7"
           inkscape:connector-curvature="0" />
      </g>
      <g
         id="g3371-6-7"
         transform="matrix(1.6411449,0,0,-1.6411449,408.05508,562.8645)">
        <path
           d="M 0,0 C 0.084,0.076 0.201,0.082 0.264,0.013 0.326,-0.055 0.309,-0.172 0.227,-0.248 0.144,-0.324 0.025,-0.33 -0.037,-0.261 -0.1,-0.192 -0.082,-0.075 0,0"
           style="fill:#ffffff;fill-opacity:1;fill-rule:nonzero;stroke:none"
           id="path3373-5-0"
           inkscape:connector-curvature="0" />
      </g>
      <g
         id="g3375-39-8"
         transform="matrix(1.6411449,0,0,-1.6411449,405.42498,562.76422)">
        <path
           d="M 0,0 C 0.083,0.076 0.2,0.082 0.264,0.013 0.326,-0.056 0.31,-0.172 0.227,-0.248 0.144,-0.324 0.026,-0.33 -0.037,-0.26 -0.1,-0.192 -0.083,-0.075 0,0"
           style="fill:#ffffff;fill-opacity:1;fill-rule:nonzero;stroke:none"
           id="path3377-2-9"
           inkscape:connector-curvature="0" />
      </g>
      <g
         id="g3379-4-3"
         transform="matrix(1.6411449,0,0,-1.6411449,405.63177,563.07359)">
        <path
           d="M 0,0 C 0.083,0.076 0.201,0.082 0.264,0.013 0.326,-0.056 0.309,-0.171 0.227,-0.247 0.143,-0.323 0.026,-0.329 -0.037,-0.261 -0.1,-0.191 -0.082,-0.075 0,0"
           style="fill:#ffffff;fill-opacity:1;fill-rule:nonzero;stroke:none"
           id="path3381-6-0"
           inkscape:connector-curvature="0" />
      </g>
      <g
         id="g3383-1-7"
         transform="matrix(1.6411449,0,0,-1.6411449,405.68954,563.86051)">
        <path
           d="M 0,0 C 0.082,0.075 0.2,0.082 0.264,0.013 0.326,-0.057 0.309,-0.172 0.226,-0.248 0.143,-0.324 0.025,-0.329 -0.037,-0.261 -0.102,-0.192 -0.084,-0.075 0,0"
           style="fill:#ffffff;fill-opacity:1;fill-rule:nonzero;stroke:none"
           id="path3385-8-4"
           inkscape:connector-curvature="0" />
      </g>
      <g
         id="g3387-2-7"
         transform="matrix(1.6411449,0,0,-1.6411449,405.34013,564.83421)">
        <path
           d="M 0,0 C 0.084,0.075 0.201,0.082 0.264,0.012 0.326,-0.056 0.31,-0.172 0.226,-0.249 0.144,-0.324 0.025,-0.331 -0.037,-0.261 -0.1,-0.193 -0.082,-0.077 0,0"
           style="fill:#ffffff;fill-opacity:1;fill-rule:nonzero;stroke:none"
           id="path3389-1-8"
           inkscape:connector-curvature="0" />
      </g>
      <g
         id="g3391-1-3"
         transform="matrix(1.6411449,0,0,-1.6411449,408.05033,561.86521)">
        <path
           d="M 0,0 C 0.083,0.075 0.2,0.081 0.263,0.012 0.326,-0.056 0.31,-0.172 0.226,-0.248 0.144,-0.324 0.026,-0.33 -0.038,-0.262 -0.101,-0.192 -0.083,-0.076 0,0"
           style="fill:#ffffff;fill-opacity:1;fill-rule:nonzero;stroke:none"
           id="path3393-9-7"
           inkscape:connector-curvature="0" />
      </g>
      <g
         id="g3395-7-1"
         transform="matrix(1.6411449,0,0,-1.6411449,141.33046,574.24749)">
        <path
           d="m 0,0 c 0.346,0.461 0.854,1.266 1.052,1.431 0.548,0.456 0.913,0.547 0.913,0.547 0,0 -3.195,6.025 -2.557,7.806 0.639,1.779 3.016,2.218 4.382,1.962 1.106,-0.207 1.611,-0.413 1.611,-0.413 0,0 -0.314,0.755 -0.746,1.252 -3.653,1.133 -7.18,0.949 -8.002,-0.146 C -5.07,10.141 -3.547,8.917 -2.109,6.475 -1.428,5.316 -0.6,2.675 0,0"
           style="fill:#231f20;fill-opacity:1;fill-rule:nonzero;stroke:none"
           id="path3397-6-0"
           inkscape:connector-curvature="0" />
      </g>
      <g
         id="g3399-2-0"
         transform="matrix(1.6411449,0,0,-1.6411449,159.74215,570.74807)">
        <path
           d="m 0,0 c 0,-0.403 -0.462,-0.73 -1.031,-0.73 -0.57,0 -1.032,0.327 -1.032,0.73 0,0.404 0.462,0.731 1.032,0.731 C -0.462,0.731 0,0.404 0,0"
           style="fill:#231f20;fill-opacity:1;fill-rule:nonzero;stroke:none"
           id="path3401-9-8"
           inkscape:connector-curvature="0" />
      </g>
      <g
         id="g3403-5-3"
         transform="matrix(1.6411449,0,0,-1.6411449,141.0902,552.04066)">
        <path
           d="M 0,0 C 0,0 -1.186,2.272 0.85,3.798 1.998,4.66 3.148,4.229 3.148,4.229"
           style="fill:none;stroke:#231f20;stroke-width:0.45699805;stroke-linecap:round;stroke-linejoin:round;stroke-miterlimit:4;stroke-opacity:1;stroke-dasharray:none"
           id="path3405-2-4"
           inkscape:connector-curvature="0" />
      </g>
      <g
         id="g3407-0-5"
         transform="matrix(1.6411449,0,0,-1.6411449,136.82388,556.18455)">
        <path
           d="m 0,0 c 0,0 -3.306,3.086 -2.299,5.604 0.574,1.437 2.155,1.294 2.155,1.294"
           style="fill:none;stroke:#231f20;stroke-width:0.45699805;stroke-linecap:round;stroke-linejoin:round;stroke-miterlimit:4;stroke-opacity:1;stroke-dasharray:none"
           id="path3409-0-0"
           inkscape:connector-curvature="0" />
      </g>
      <g
         id="g3411-3-1"
         transform="matrix(1.6411449,0,0,-1.6411449,141.0902,552.04066)">
        <path
           d="M 0,0 C 0,0 -0.164,0.316 -0.266,0.792"
           style="fill:none;stroke:#ffffff;stroke-width:0.45699805;stroke-linecap:round;stroke-linejoin:round;stroke-miterlimit:4;stroke-opacity:1;stroke-dasharray:none"
           id="path3413-9-4"
           inkscape:connector-curvature="0" />
      </g>
      <g
         id="g3415-1-5"
         transform="matrix(1.6411449,0,0,-1.6411449,148.37917,544.98259)">
        <path
           d="m 0,0 c 0,-0.437 -0.354,-0.791 -0.791,-0.791 -0.436,0 -0.789,0.354 -0.789,0.791 0,0.437 0.353,0.791 0.789,0.791 C -0.354,0.791 0,0.437 0,0"
           style="fill:#ffffff;fill-opacity:1;fill-rule:nonzero;stroke:none"
           id="path3417-8-6"
           inkscape:connector-curvature="0" />
      </g>
      <g
         id="g3419-1-2"
         transform="matrix(1.6411449,0,0,-1.6411449,148.37917,544.98259)">
        <path
           d="m 0,0 c 0,-0.437 -0.354,-0.791 -0.791,-0.791 -0.436,0 -0.789,0.354 -0.789,0.791 0,0.437 0.353,0.791 0.789,0.791 C -0.354,0.791 0,0.437 0,0 z"
           style="fill:none;stroke:#231f20;stroke-width:0.45699805;stroke-linecap:round;stroke-linejoin:round;stroke-miterlimit:4;stroke-opacity:1;stroke-dasharray:none"
           id="path3421-9-0"
           inkscape:connector-curvature="0" />
      </g>
      <g
         id="g3423-5-3"
         transform="matrix(1.6411449,0,0,-1.6411449,136.82388,556.18455)">
        <path
           d="M 0,0 C 0,0 -0.727,0.678 -1.395,1.658"
           style="fill:none;stroke:#ffffff;stroke-width:0.45699805;stroke-linecap:round;stroke-linejoin:round;stroke-miterlimit:4;stroke-opacity:1;stroke-dasharray:none"
           id="path3425-3-5"
           inkscape:connector-curvature="0" />
      </g>
      <g
         id="g3427-2-6"
         transform="matrix(1.6411449,0,0,-1.6411449,138.94571,544.74692)">
        <path
           d="m 0,0 c 0,-0.437 -0.354,-0.791 -0.789,-0.791 -0.438,0 -0.791,0.354 -0.791,0.791 0,0.437 0.353,0.79 0.791,0.79 C -0.354,0.79 0,0.437 0,0"
           style="fill:#ffffff;fill-opacity:1;fill-rule:nonzero;stroke:none"
           id="path3429-5-6"
           inkscape:connector-curvature="0" />
      </g>
      <g
         id="g3431-2-6"
         transform="matrix(1.6411449,0,0,-1.6411449,138.94571,544.74692)">
        <path
           d="m 0,0 c 0,-0.437 -0.354,-0.791 -0.789,-0.791 -0.438,0 -0.791,0.354 -0.791,0.791 0,0.437 0.353,0.79 0.791,0.79 C -0.354,0.79 0,0.437 0,0 z"
           style="fill:none;stroke:#231f20;stroke-width:0.45699805;stroke-linecap:round;stroke-linejoin:round;stroke-miterlimit:4;stroke-opacity:1;stroke-dasharray:none"
           id="path3433-5-7"
           inkscape:connector-curvature="0" />
      </g>
      <g
         id="g3435-8-6"
         transform="matrix(1.6411449,0,0,-1.6411449,157.64262,582.6142)">
        <path
           d="m 0,0 c -0.193,0.377 -0.619,1.16 -0.977,1.488 -0.477,0.439 -1.515,0.387 -1.515,0.387 0,0 0.56,-0.731 0.672,-0.961 0.317,-0.665 0.34,-1.073 0.811,-1.174 C -0.512,-0.366 0,0 0,0"
           style="fill:#ffffff;fill-opacity:1;fill-rule:nonzero;stroke:none"
           id="path3437-6-7"
           inkscape:connector-curvature="0" />
      </g>
      <g
         id="g3439-7-7"
         transform="matrix(1.6411449,0,0,-1.6411449,157.64262,582.6142)">
        <path
           d="m 0,0 c -0.193,0.377 -0.619,1.16 -0.977,1.488 -0.477,0.439 -1.515,0.387 -1.515,0.387 0,0 0.56,-0.731 0.672,-0.961 0.317,-0.665 0.34,-1.073 0.811,-1.174 C -0.512,-0.366 0,0 0,0 z"
           style="fill:none;stroke:#231f20;stroke-width:0.22849903;stroke-linecap:round;stroke-linejoin:round;stroke-miterlimit:4;stroke-opacity:1;stroke-dasharray:none"
           id="path3441-7-1"
           inkscape:connector-curvature="0" />
      </g>
    </g>
  </g>
</svg>
